<svg xmlns="http://www.w3.org/2000/svg" xmlns:xlink="http://www.w3.org/1999/xlink" preserveAspectRatio="xMidYMid meet" version="1.0" viewBox="-0.2 0.0 472.5 498.1" zoomAndPan="magnify" style="fill: rgb(0, 0, 0);" role="img" aria-label="Rustic Organic Hand"><defs><clipPath id="__id23_sp88rbhvcd"><path d="M 22 107 L 319 107 L 319 498.050781 L 22 498.050781 Z M 22 107"></path></clipPath><clipPath id="__id24_sp88rbhvcd"><path d="M 7 0 L 472.308594 0 L 472.308594 471 L 7 471 Z M 7 0"></path></clipPath></defs><g><g id="__id25_sp88rbhvcd"><path d="M 38.222656 84.519531 L 38.234375 84.519531 Z M 27.160156 61.320312 C 26.492188 61.390625 25.925781 61.503906 25.402344 61.671875 C 23.109375 62.40625 21.339844 64.222656 20.136719 67.070312 C 18.949219 69.847656 18.578125 72.9375 18.476562 75.035156 C 17.886719 87.101562 20.582031 99.878906 27.222656 116.453125 L 27.273438 116.585938 C 28.222656 114.269531 29.457031 112.414062 31.046875 110.894531 C 33.121094 108.894531 36.257812 107.78125 39.246094 107.835938 C 38.054688 104.761719 37.199219 101.796875 36.648438 98.832031 C 35.722656 93.9375 35.757812 88.890625 36.753906 84.226562 C 36.777344 84.109375 36.796875 83.992188 36.824219 83.871094 C 32.46875 76.847656 29.222656 69.269531 27.160156 61.320312 Z M 27.445312 122.566406 C 26.832031 122.566406 26.273438 122.1875 26.046875 121.605469 C 25.707031 120.722656 25.351562 119.839844 24.996094 118.957031 L 24.4375 117.566406 C 17.628906 100.570312 14.867188 87.410156 15.480469 74.890625 C 15.59375 72.542969 16.015625 69.078125 17.375 65.898438 C 18.90625 62.269531 21.367188 59.816406 24.484375 58.816406 C 25.566406 58.46875 26.734375 58.289062 28.269531 58.246094 C 28.980469 58.21875 29.601562 58.699219 29.769531 59.390625 C 31.78125 67.671875 35.121094 75.554688 39.699219 82.8125 C 39.917969 83.160156 39.984375 83.585938 39.882812 83.988281 C 39.808594 84.261719 39.75 84.519531 39.699219 84.792969 C 39.695312 84.808594 39.695312 84.820312 39.691406 84.835938 C 38.773438 89.113281 38.742188 93.765625 39.59375 98.277344 C 40.253906 101.796875 41.367188 105.332031 43.003906 109.085938 C 43.238281 109.617188 43.140625 110.238281 42.757812 110.675781 C 42.375 111.109375 41.773438 111.285156 41.214844 111.128906 C 38.5 110.347656 35.097656 111.160156 33.125 113.054688 C 31.121094 114.976562 29.785156 117.628906 28.910156 121.40625 C 28.761719 122.046875 28.210938 122.515625 27.550781 122.5625 C 27.519531 122.566406 27.480469 122.566406 27.445312 122.566406" style="fill: rgb(93, 74, 25);"></path></g><g clip-path="url(#__id23_sp88rbhvcd)" id="__id26_sp88rbhvcd"><path d="M 192.746094 489.082031 C 196.308594 490.640625 199.707031 491.851562 203.105469 492.78125 C 223.679688 498.394531 248.308594 493.484375 270.679688 479.304688 C 288.257812 468.160156 302.941406 452.78125 315.371094 439.058594 C 303.566406 426.152344 293.933594 410.785156 287.441406 394.511719 C 267.398438 383.414062 247.835938 370.882812 228.910156 358.753906 C 209.136719 346.082031 188.6875 332.980469 172.140625 315.496094 C 154.511719 296.890625 142.023438 273.984375 129.941406 251.832031 C 126.085938 244.753906 122.09375 237.433594 118.003906 230.382812 C 117.933594 230.269531 117.847656 230.121094 117.765625 229.976562 C 117.695312 229.855469 117.625 229.734375 117.550781 229.613281 C 105.484375 208.910156 91.609375 188.878906 78.191406 169.507812 C 69.816406 157.414062 61.152344 144.910156 53.007812 132.355469 C 51.921875 130.722656 50.871094 129.078125 49.820312 127.433594 C 46.714844 122.5625 43.199219 116.898438 40.554688 110.972656 C 37.96875 110.480469 34.9375 111.308594 33.125 113.054688 C 31.121094 114.976562 29.785156 117.628906 28.910156 121.40625 C 28.433594 123.4375 28.148438 125.527344 27.910156 127.480469 C 23.976562 159.71875 22.007812 201.050781 41.863281 234.757812 C 45.820312 241.46875 50.644531 247.816406 55.304688 253.957031 C 58.011719 257.515625 60.804688 261.195312 63.421875 264.929688 C 72.105469 277.332031 79.296875 291.019531 86.25 304.257812 C 96.679688 324.113281 107.464844 344.644531 123.339844 360.710938 C 130.210938 367.664062 138.089844 373.816406 145.707031 379.769531 C 150.703125 383.671875 155.871094 387.703125 160.738281 391.949219 C 171.371094 401.207031 178.855469 410.242188 183.621094 419.566406 C 183.683594 419.691406 183.730469 419.828125 183.757812 419.964844 C 184.132812 421.886719 184.492188 423.839844 184.824219 425.773438 C 188.441406 446.570312 191.105469 467.867188 192.746094 489.082031 Z M 220.59375 498.050781 C 214.28125 498.050781 208.148438 497.269531 202.316406 495.675781 C 198.507812 494.632812 194.710938 493.253906 190.707031 491.460938 C 190.203125 491.238281 189.863281 490.757812 189.824219 490.207031 C 188.195312 468.789062 185.519531 447.28125 181.867188 426.28125 C 181.550781 424.441406 181.210938 422.578125 180.851562 420.746094 C 176.261719 411.832031 169.035156 403.152344 158.769531 394.210938 C 153.960938 390.019531 148.824219 386.011719 143.859375 382.132812 C 136.167969 376.121094 128.210938 369.910156 121.207031 362.820312 C 105.015625 346.433594 94.125 325.703125 83.59375 305.65625 C 76.683594 292.5 69.539062 278.894531 60.964844 266.648438 C 58.382812 262.964844 55.605469 259.308594 52.917969 255.773438 C 48.203125 249.5625 43.324219 243.144531 39.277344 236.28125 C 30.457031 221.304688 25.21875 203.996094 23.265625 183.371094 C 21.71875 167 22.246094 149.125 24.933594 127.117188 C 25.179688 125.078125 25.480469 122.894531 25.984375 120.726562 C 27 116.359375 28.605469 113.234375 31.046875 110.894531 C 33.78125 108.261719 38.304688 107.167969 42.042969 108.242188 C 42.476562 108.367188 42.828125 108.679688 43.007812 109.089844 C 45.589844 115.0625 49.183594 120.855469 52.351562 125.820312 C 53.394531 127.449219 54.4375 129.085938 55.511719 130.703125 C 55.515625 130.710938 55.519531 130.714844 55.523438 130.71875 C 63.644531 143.238281 72.292969 155.722656 80.65625 167.800781 C 94.109375 187.21875 108.019531 207.300781 120.128906 228.078125 C 120.199219 228.195312 120.28125 228.339844 120.363281 228.480469 C 120.4375 228.605469 120.507812 228.730469 120.578125 228.847656 C 124.707031 235.964844 128.707031 243.300781 132.578125 250.394531 C 144.5625 272.378906 156.960938 295.109375 174.316406 313.433594 C 190.613281 330.652344 210.90625 343.65625 230.53125 356.230469 C 249.5625 368.425781 269.242188 381.035156 289.363281 392.144531 C 289.671875 392.3125 289.90625 392.582031 290.035156 392.90625 C 296.558594 409.453125 306.402344 425.054688 318.5 438.023438 C 319.03125 438.59375 319.039062 439.476562 318.515625 440.054688 C 305.761719 454.175781 290.617188 470.21875 272.285156 481.835938 C 255.5 492.480469 237.429688 498.050781 220.59375 498.050781" style="fill: rgb(93, 74, 25);"></path></g><g id="__id27_sp88rbhvcd"><path d="M 38.222656 86.019531 C 37.894531 86.019531 37.566406 85.910156 37.292969 85.699219 C 36.859375 85.355469 36.648438 84.796875 36.75 84.25 C 36.8125 83.90625 36.886719 83.574219 36.976562 83.230469 C 37.128906 82.65625 37.601562 82.226562 38.1875 82.128906 C 38.769531 82.035156 39.363281 82.292969 39.6875 82.792969 L 39.863281 83.070312 C 39.941406 83.195312 40.019531 83.316406 40.101562 83.4375 C 40.367188 83.828125 40.433594 84.324219 40.28125 84.769531 C 40.125 85.21875 39.765625 85.570312 39.3125 85.710938 C 39.152344 85.765625 38.984375 85.824219 38.832031 85.894531 C 38.636719 85.980469 38.429688 86.019531 38.222656 86.019531" style="fill: rgb(93, 74, 25);"></path></g><g id="__id28_sp88rbhvcd"><path d="M 7.277344 9.199219 C 6.550781 9.246094 5.90625 9.46875 5.332031 9.863281 C 3.625 11.046875 3.144531 13.585938 3.039062 15.511719 C 2.816406 19.417969 3.558594 23.355469 4.394531 27.023438 C 7.320312 39.796875 12.121094 52.027344 18.683594 63.414062 C 20.171875 61.140625 22.140625 59.566406 24.484375 58.816406 C 25.097656 58.617188 25.738281 58.476562 26.457031 58.382812 C 25.761719 55.203125 25.253906 51.976562 24.953125 48.769531 C 24.757812 46.738281 24.59375 44.136719 24.964844 41.554688 C 20.1875 36.628906 15.855469 31.191406 12.085938 25.382812 C 9.699219 21.695312 7.4375 17.652344 7.054688 13.070312 C 6.949219 11.78125 7.027344 10.46875 7.277344 9.199219 Z M 18.753906 67.988281 C 18.230469 67.988281 17.742188 67.714844 17.472656 67.261719 C 10.046875 54.953125 4.664062 41.640625 1.46875 27.691406 C 0.585938 23.804688 -0.199219 19.621094 0.046875 15.34375 C 0.246094 11.628906 1.484375 8.878906 3.628906 7.394531 C 5.285156 6.253906 7.261719 5.921875 9.5 6.398438 C 9.917969 6.488281 10.28125 6.753906 10.492188 7.128906 C 10.703125 7.503906 10.742188 7.949219 10.605469 8.355469 C 10.117188 9.769531 9.921875 11.316406 10.042969 12.824219 C 10.371094 16.746094 12.429688 20.394531 14.601562 23.75 C 18.402344 29.601562 22.789062 35.070312 27.640625 39.996094 C 27.984375 40.347656 28.136719 40.84375 28.042969 41.328125 C 27.578125 43.785156 27.742188 46.445312 27.9375 48.484375 C 28.28125 52.132812 28.898438 55.800781 29.769531 59.390625 C 29.878906 59.828125 29.78125 60.292969 29.507812 60.652344 C 29.230469 61.011719 28.808594 61.230469 28.355469 61.242188 C 27.121094 61.28125 26.207031 61.410156 25.402344 61.671875 C 23.109375 62.40625 21.339844 64.222656 20.136719 67.070312 C 19.917969 67.589844 19.425781 67.945312 18.863281 67.984375 C 18.828125 67.988281 18.789062 67.988281 18.753906 67.988281" style="fill: rgb(93, 74, 25);"></path></g><g clip-path="url(#__id24_sp88rbhvcd)" id="__id29_sp88rbhvcd"><path d="M 39.53125 85.621094 C 38.773438 89.683594 38.792969 94.039062 39.59375 98.277344 C 40.25 101.796875 41.367188 105.332031 43.003906 109.085938 C 45.589844 115.0625 49.183594 120.855469 52.351562 125.820312 C 53.394531 127.449219 54.4375 129.085938 55.511719 130.703125 C 63.644531 143.238281 72.292969 155.722656 80.65625 167.800781 C 94.109375 187.21875 108.019531 207.300781 120.128906 228.078125 C 120.199219 228.195312 120.28125 228.339844 120.363281 228.480469 C 120.4375 228.605469 120.507812 228.730469 120.578125 228.847656 C 124.707031 235.964844 128.707031 243.300781 132.578125 250.394531 C 144.5625 272.378906 156.960938 295.109375 174.316406 313.433594 C 190.613281 330.652344 210.90625 343.65625 230.53125 356.230469 C 249.5625 368.425781 269.242188 381.035156 289.363281 392.144531 C 309.21875 403.105469 327.339844 411.390625 344.761719 417.46875 C 344.992188 417.546875 345.203125 417.6875 345.371094 417.867188 C 359.222656 432.945312 369.78125 451.351562 378.601562 467.589844 C 400.128906 460.308594 420.160156 442.820312 435.132812 418.207031 C 446.269531 399.914062 454.070312 379.449219 461.617188 359.664062 C 463.964844 353.507812 466.386719 347.160156 468.882812 340.9375 C 442.296875 328.554688 416.355469 316.292969 391.359375 302.730469 C 379.367188 296.222656 366.910156 288.964844 357.953125 278.183594 C 347.761719 265.898438 343.039062 250.277344 338.46875 235.171875 C 337.9375 233.414062 337.410156 231.664062 336.875 229.925781 C 326.902344 197.621094 315.265625 173.765625 300.246094 154.84375 C 293.152344 145.902344 284.808594 137.464844 276.734375 129.300781 C 259.71875 112.09375 242.121094 94.296875 235.308594 70.835938 C 234.863281 69.296875 234.460938 67.722656 234.070312 66.195312 C 232.8125 61.289062 231.628906 56.652344 229.03125 52.667969 C 225.824219 47.726562 219.359375 44.09375 214.101562 46.566406 C 210.054688 48.464844 207.671875 53.363281 206.8125 61.539062 C 205.644531 72.742188 205.835938 84.121094 207.386719 95.355469 C 207.472656 95.992188 207.148438 96.613281 206.574219 96.902344 C 206 97.1875 205.308594 97.078125 204.847656 96.632812 C 197.574219 89.484375 188.824219 81.1875 179.121094 73.824219 C 161.035156 60.105469 140.214844 50.160156 120.078125 40.546875 L 78.417969 20.65625 C 72.421875 17.800781 66.226562 14.84375 59.648438 14.023438 C 57.554688 13.75 56.171875 13.984375 55.398438 14.730469 C 54.523438 15.574219 54.394531 17.152344 54.386719 18.585938 C 54.375 21.070312 54.605469 23.570312 55.078125 26.003906 C 55.195312 26.621094 54.914062 27.25 54.371094 27.574219 C 53.832031 27.898438 53.144531 27.847656 52.65625 27.449219 C 50.261719 25.496094 47.945312 23.421875 45.773438 21.285156 C 44.605469 20.136719 43.433594 18.945312 42.257812 17.742188 C 35.300781 10.652344 28.109375 3.320312 18.84375 3.007812 C 17.140625 2.949219 15.691406 3.179688 14.546875 3.6875 C 12.761719 4.484375 11.363281 6.140625 10.605469 8.351562 C 10.117188 9.769531 9.921875 11.316406 10.042969 12.824219 C 10.371094 16.746094 12.429688 20.394531 14.601562 23.75 C 18.402344 29.601562 22.789062 35.070312 27.640625 39.996094 C 27.984375 40.347656 28.136719 40.84375 28.042969 41.328125 C 27.578125 43.785156 27.742188 46.445312 27.9375 48.484375 C 28.28125 52.132812 28.898438 55.800781 29.769531 59.390625 C 31.78125 67.671875 35.121094 75.554688 39.699219 82.8125 L 39.863281 83.070312 C 39.941406 83.195312 40.019531 83.316406 40.101562 83.4375 C 40.367188 83.828125 40.433594 84.324219 40.28125 84.769531 C 40.152344 85.144531 39.882812 85.449219 39.53125 85.621094 Z M 377.882812 470.90625 C 377.34375 470.90625 376.832031 470.617188 376.5625 470.121094 C 367.761719 453.871094 357.222656 435.289062 343.414062 420.171875 C 325.941406 414.050781 307.78125 405.738281 287.914062 394.769531 C 267.707031 383.613281 247.984375 370.976562 228.910156 358.753906 C 209.136719 346.082031 188.6875 332.980469 172.140625 315.496094 C 154.511719 296.890625 142.023438 273.984375 129.941406 251.832031 C 126.085938 244.753906 122.09375 237.433594 118.003906 230.382812 C 117.933594 230.269531 117.847656 230.121094 117.765625 229.976562 C 117.695312 229.855469 117.625 229.734375 117.550781 229.613281 C 105.484375 208.910156 91.609375 188.878906 78.191406 169.507812 C 69.8125 157.414062 61.152344 144.90625 53.003906 132.351562 C 51.925781 130.730469 50.875 129.082031 49.820312 127.433594 C 46.59375 122.371094 42.925781 116.457031 40.253906 110.28125 C 38.523438 106.320312 37.34375 102.574219 36.648438 98.832031 C 35.71875 93.933594 35.757812 88.875 36.757812 84.207031 C 36.777344 84.105469 36.808594 84.007812 36.851562 83.914062 C 32.257812 76.507812 28.898438 68.503906 26.855469 60.097656 C 25.949219 56.367188 25.308594 52.554688 24.953125 48.765625 C 24.757812 46.738281 24.59375 44.136719 24.964844 41.554688 C 20.1875 36.628906 15.855469 31.191406 12.085938 25.382812 C 9.699219 21.695312 7.4375 17.652344 7.054688 13.070312 C 6.898438 11.148438 7.144531 9.179688 7.769531 7.375 C 8.796875 4.371094 10.773438 2.085938 13.324219 0.949219 C 14.914062 0.242188 16.753906 -0.0664062 18.941406 0.0117188 C 29.410156 0.363281 37.03125 8.132812 44.398438 15.644531 C 45.5625 16.832031 46.71875 18.011719 47.875 19.144531 C 49.066406 20.316406 50.296875 21.464844 51.5625 22.585938 C 51.4375 21.25 51.378906 19.90625 51.386719 18.566406 C 51.398438 16.628906 51.628906 14.199219 53.3125 12.574219 C 54.785156 11.148438 56.980469 10.648438 60.03125 11.050781 C 67.078125 11.925781 73.5 14.988281 79.710938 17.949219 L 121.371094 37.839844 C 141.644531 47.519531 162.605469 57.53125 180.9375 71.433594 C 189.441406 77.886719 197.199219 85.027344 203.890625 91.503906 C 202.804688 81.421875 202.78125 71.257812 203.828125 61.230469 C 204.808594 51.917969 207.75 46.234375 212.828125 43.851562 C 219.566406 40.679688 227.640625 45.011719 231.546875 51.03125 C 234.410156 55.429688 235.714844 60.527344 236.976562 65.453125 C 237.359375 66.953125 237.757812 68.507812 238.191406 70 C 244.789062 92.730469 262.113281 110.246094 278.867188 127.191406 C 286.996094 135.410156 295.402344 143.910156 302.597656 152.976562 C 317.855469 172.199219 329.65625 196.371094 339.742188 229.039062 C 340.277344 230.785156 340.808594 232.542969 341.34375 234.300781 C 345.824219 249.125 350.457031 264.449219 360.265625 276.269531 C 368.878906 286.640625 381.054688 293.722656 392.792969 300.09375 C 418.113281 313.835938 444.445312 326.253906 471.4375 338.816406 C 472.164062 339.152344 472.496094 340 472.195312 340.738281 C 469.519531 347.355469 466.929688 354.15625 464.421875 360.730469 C 456.828125 380.648438 448.972656 401.238281 437.695312 419.765625 C 422.078125 445.441406 400.996094 463.578125 378.339844 470.835938 C 378.1875 470.882812 378.035156 470.90625 377.882812 470.90625" style="fill: rgb(93, 74, 25);"></path></g><g id="__id30_sp88rbhvcd"><path d="M 283.503906 156.753906 C 283.34375 156.753906 283.183594 156.726562 283.023438 156.675781 C 255.585938 147.457031 234.679688 126.484375 214.460938 106.203125 C 211.320312 103.054688 208.070312 99.796875 204.851562 96.632812 C 204.257812 96.050781 204.25 95.101562 204.828125 94.511719 C 205.410156 93.917969 206.359375 93.910156 206.949219 94.488281 C 210.183594 97.664062 213.441406 100.929688 216.585938 104.085938 C 236.558594 124.121094 257.210938 144.835938 283.980469 153.832031 C 284.765625 154.09375 285.1875 154.945312 284.925781 155.730469 C 284.714844 156.359375 284.128906 156.753906 283.503906 156.753906" style="fill: rgb(93, 74, 25);"></path></g><g id="__id31_sp88rbhvcd"><path d="M 106.28125 249.644531 C 106.144531 249.644531 106.003906 249.625 105.867188 249.585938 C 105.070312 249.355469 104.609375 248.527344 104.835938 247.730469 C 107.050781 239.988281 111.679688 232.867188 117.867188 227.683594 C 118.503906 227.152344 119.449219 227.234375 119.980469 227.871094 C 120.515625 228.503906 120.429688 229.449219 119.796875 229.984375 C 114.0625 234.785156 109.773438 241.382812 107.722656 248.554688 C 107.53125 249.214844 106.933594 249.644531 106.28125 249.644531" style="fill: rgb(93, 74, 25);"></path></g><g id="__id32_sp88rbhvcd"><path d="M 99.964844 274.488281 C 99.25 274.488281 98.617188 273.972656 98.488281 273.242188 C 95.324219 254.882812 86.761719 237.109375 74.378906 223.199219 C 73.738281 222.480469 73.089844 221.769531 72.4375 221.058594 C 69.542969 217.890625 66.546875 214.613281 64.542969 210.65625 C 62.304688 206.210938 61.496094 201.296875 60.714844 196.542969 C 59.980469 192.070312 59.285156 187.847656 57.503906 183.972656 C 56.921875 182.707031 56.234375 181.496094 55.503906 180.214844 C 54.242188 178.003906 52.941406 175.71875 52.246094 173.128906 C 51.027344 168.59375 51.871094 163.992188 52.683594 159.539062 C 52.832031 158.730469 52.980469 157.925781 53.113281 157.125 C 54.515625 148.710938 54.40625 140.195312 52.789062 131.820312 C 52.632812 131.007812 53.164062 130.21875 53.980469 130.0625 C 54.789062 129.902344 55.578125 130.4375 55.734375 131.25 C 57.421875 139.980469 57.535156 148.851562 56.074219 157.617188 C 55.9375 158.4375 55.785156 159.257812 55.636719 160.078125 C 54.882812 164.203125 54.097656 168.46875 55.144531 172.351562 C 55.738281 174.566406 56.890625 176.589844 58.109375 178.730469 C 58.839844 180.011719 59.59375 181.335938 60.230469 182.71875 C 62.179688 186.960938 62.941406 191.585938 63.675781 196.054688 C 64.453125 200.796875 65.191406 205.273438 67.222656 209.304688 C 69.039062 212.894531 71.890625 216.015625 74.652344 219.035156 C 75.3125 219.757812 75.972656 220.480469 76.617188 221.207031 C 89.367188 235.527344 98.1875 253.828125 101.445312 272.734375 C 101.585938 273.550781 101.039062 274.324219 100.222656 274.46875 C 100.136719 274.480469 100.050781 274.488281 99.964844 274.488281" style="fill: rgb(93, 74, 25);"></path></g><g id="__id33_sp88rbhvcd"><path d="M 228.023438 162.609375 C 227.570312 162.609375 227.125 162.40625 226.828125 162.015625 C 213.96875 145.128906 200.261719 128.519531 186.097656 112.65625 C 179.835938 105.644531 173.070312 98.277344 165.273438 92.015625 C 157.085938 85.441406 147.863281 80.175781 138.945312 75.082031 C 127.09375 68.292969 114.835938 61.277344 102.042969 55.042969 C 98.691406 53.410156 95.246094 51.804688 91.914062 50.253906 C 84.484375 46.792969 76.804688 43.214844 69.566406 39.046875 C 63.359375 35.480469 57.667969 31.574219 52.648438 27.445312 C 52.011719 26.917969 51.917969 25.972656 52.445312 25.332031 C 52.972656 24.691406 53.914062 24.601562 54.554688 25.128906 C 59.445312 29.152344 65 32.960938 71.0625 36.445312 C 78.191406 40.550781 85.808594 44.101562 93.179688 47.53125 C 96.523438 49.089844 99.980469 50.699219 103.359375 52.347656 C 116.238281 58.625 128.539062 65.664062 140.4375 72.476562 C 149.453125 77.628906 158.78125 82.953125 167.152344 89.675781 C 175.128906 96.078125 181.992188 103.554688 188.335938 110.65625 C 202.550781 126.578125 216.308594 143.246094 229.21875 160.199219 C 229.71875 160.859375 229.589844 161.800781 228.933594 162.300781 C 228.660156 162.507812 228.339844 162.609375 228.023438 162.609375" style="fill: rgb(93, 74, 25);"></path></g><g id="__id34_sp88rbhvcd"><path d="M 158.695312 209.019531 C 158.179688 209.019531 157.675781 208.753906 157.398438 208.277344 C 147.96875 192.121094 138.214844 175.417969 123.613281 163.21875 C 120.472656 160.589844 117.058594 158.148438 113.761719 155.789062 C 110.359375 153.355469 106.84375 150.839844 103.570312 148.085938 C 93.433594 139.550781 85.527344 128.699219 77.882812 118.207031 C 71.925781 110.027344 65.769531 101.574219 58.617188 94.324219 C 52.183594 87.800781 46.429688 84.867188 41.023438 85.355469 C 40.433594 85.414062 39.875 85.527344 39.328125 85.707031 C 38.542969 85.964844 37.695312 85.535156 37.4375 84.75 C 37.179688 83.960938 37.609375 83.113281 38.394531 82.855469 C 39.152344 82.609375 39.917969 82.449219 40.742188 82.367188 C 47.105469 81.796875 53.648438 85.019531 60.753906 92.21875 C 68.058594 99.625 74.285156 108.171875 80.308594 116.4375 C 87.847656 126.789062 95.644531 137.488281 105.503906 145.789062 C 108.683594 148.46875 112.152344 150.949219 115.507812 153.347656 C 118.851562 155.742188 122.308594 158.214844 125.535156 160.914062 C 140.539062 173.453125 150.871094 191.148438 159.988281 206.761719 C 160.40625 207.476562 160.164062 208.398438 159.449219 208.816406 C 159.210938 208.953125 158.949219 209.019531 158.695312 209.019531" style="fill: rgb(93, 74, 25);"></path></g><g id="__id35_sp88rbhvcd"><path d="M 185.351562 188.902344 C 184.863281 188.902344 184.390625 188.664062 184.101562 188.230469 C 178.871094 180.351562 173.640625 172.480469 168.40625 164.605469 C 163.175781 156.730469 157.945312 148.855469 152.714844 140.976562 C 147.324219 132.871094 141.75 124.496094 135.152344 117.234375 C 123.539062 104.460938 108.414062 94.746094 93.789062 85.351562 C 74.597656 73.027344 54.753906 60.28125 42.785156 40.515625 L 42.554688 40.136719 C 40.945312 37.472656 39.277344 34.71875 36.683594 33.957031 C 33.679688 33.078125 30.464844 35.363281 29.09375 38.082031 C 28.605469 39.058594 28.261719 40.117188 28.046875 41.316406 C 27.898438 42.132812 27.121094 42.675781 26.304688 42.527344 C 25.488281 42.378906 24.949219 41.601562 25.09375 40.785156 C 25.359375 39.300781 25.792969 37.976562 26.414062 36.734375 C 28.316406 32.96875 32.855469 29.714844 37.527344 31.078125 C 41.242188 32.171875 43.300781 35.578125 45.121094 38.585938 L 45.351562 38.960938 C 56.960938 58.132812 75.636719 70.128906 95.410156 82.828125 C 110.199219 92.328125 125.492188 102.148438 137.371094 115.214844 C 144.121094 122.644531 149.761719 131.117188 155.210938 139.3125 C 160.445312 147.195312 165.675781 155.070312 170.90625 162.945312 C 176.140625 170.820312 181.371094 178.695312 186.601562 186.570312 C 187.058594 187.261719 186.867188 188.191406 186.179688 188.652344 C 185.925781 188.820312 185.636719 188.902344 185.351562 188.902344" style="fill: rgb(93, 74, 25);"></path></g></g></svg>
