<svg xmlns="http://www.w3.org/2000/svg" xmlns:xlink="http://www.w3.org/1999/xlink" preserveAspectRatio="xMidYMid meet" version="1.0" viewBox="-0.2 -0.2 499.3 229.1" zoomAndPan="magnify" style="fill: rgb(0, 0, 0);" role="img" aria-label="Rustic Organic Hand"><defs><clipPath id="__id75_sk8ik6c3vq"><path d="M 232 214 L 281 214 L 281 228.871094 L 232 228.871094 Z M 232 214"></path></clipPath><clipPath id="__id76_sk8ik6c3vq"><path d="M 387 94 L 499.128906 94 L 499.128906 130 L 387 130 Z M 387 94"></path></clipPath><clipPath id="__id77_sk8ik6c3vq"><path d="M 444 0 L 499.128906 0 L 499.128906 98 L 444 98 Z M 444 0"></path></clipPath></defs><g><g clip-path="url(#__id75_sk8ik6c3vq)" id="__id78_sk8ik6c3vq"><path d="M 257.722656 228.871094 C 256.421875 228.871094 255.09375 228.675781 253.726562 228.226562 C 250.359375 227.113281 246.855469 224.761719 243.464844 222.488281 C 241.238281 220.992188 239.132812 219.582031 237.152344 218.558594 C 236.175781 218.042969 235.023438 217.511719 233.714844 216.976562 C 232.949219 216.664062 232.578125 215.789062 232.894531 215.019531 C 233.207031 214.253906 234.085938 213.886719 234.851562 214.199219 C 236.25 214.773438 237.492188 215.34375 238.539062 215.902344 C 240.660156 216.992188 242.9375 218.519531 245.136719 219.996094 C 248.359375 222.15625 251.691406 224.394531 254.664062 225.375 C 259.414062 226.941406 263.925781 224.453125 268.695312 221.824219 C 271.871094 220.070312 275.15625 218.261719 278.738281 217.503906 C 279.542969 217.335938 280.34375 217.851562 280.515625 218.660156 C 280.6875 219.472656 280.171875 220.269531 279.359375 220.441406 C 276.214844 221.105469 273.128906 222.804688 270.144531 224.449219 C 266.1875 226.632812 262.128906 228.871094 257.722656 228.871094" style="fill: rgb(93, 74, 25);"></path></g><g id="__id79_sk8ik6c3vq"><path d="M 282.546875 221.238281 C 281.140625 221.238281 279.820312 220.9375 278.457031 220.351562 C 276.742188 219.605469 275.019531 218.433594 272.960938 216.902344 C 260.976562 207.980469 247.519531 199.90625 235.648438 192.785156 C 234.9375 192.359375 234.707031 191.4375 235.132812 190.726562 C 235.558594 190.015625 236.480469 189.785156 237.191406 190.210938 C 249.125 197.371094 262.648438 205.484375 274.753906 214.492188 C 276.390625 215.710938 278.113281 216.929688 279.644531 217.597656 C 281.953125 218.589844 284.136719 218.664062 289.042969 216.210938 C 294.851562 213.296875 300.984375 209.324219 305.449219 205.582031 C 306.085938 205.050781 307.03125 205.132812 307.5625 205.769531 C 308.097656 206.402344 308.011719 207.347656 307.378906 207.882812 C 302.746094 211.765625 296.394531 215.882812 290.386719 218.894531 C 287.21875 220.476562 284.777344 221.238281 282.546875 221.238281" style="fill: rgb(93, 74, 25);"></path></g><g id="__id80_sk8ik6c3vq"><path d="M 313.488281 209.28125 C 310.945312 209.28125 308.386719 208.917969 305.96875 208.164062 C 303.976562 207.566406 302.1875 206.710938 300.65625 205.636719 C 295.65625 202.101562 290.988281 196.765625 286.050781 191.113281 C 278.351562 182.316406 270.394531 173.214844 261.039062 171.132812 C 260.230469 170.953125 259.722656 170.152344 259.902344 169.34375 C 260.082031 168.53125 260.882812 168.023438 261.691406 168.203125 C 272.003906 170.5 280.292969 179.976562 288.304688 189.140625 C 293.128906 194.652344 297.679688 199.855469 302.386719 203.183594 C 303.648438 204.074219 305.152344 204.785156 306.847656 205.296875 C 312.765625 207.136719 319.886719 206.3125 324.585938 203.246094 C 325.28125 202.796875 326.210938 202.988281 326.664062 203.683594 C 327.113281 204.378906 326.917969 205.304688 326.226562 205.757812 C 322.679688 208.070312 318.113281 209.28125 313.488281 209.28125" style="fill: rgb(93, 74, 25);"></path></g><g id="__id81_sk8ik6c3vq"><path d="M 325.296875 206.253906 C 325.03125 206.253906 324.765625 206.183594 324.523438 206.039062 C 323.8125 205.613281 323.585938 204.691406 324.011719 203.980469 C 324.019531 203.953125 324.035156 203.894531 324.046875 203.867188 C 328.359375 194.636719 328.617188 194.082031 322.855469 186.496094 L 322.265625 185.71875 C 317.917969 180.050781 313.035156 174.683594 308.40625 169.726562 C 307.742188 169.011719 307.011719 168.242188 306.234375 167.433594 C 299.808594 160.695312 291.007812 151.472656 291.714844 143.191406 C 291.78125 142.363281 292.519531 141.75 293.335938 141.820312 C 294.160156 141.894531 294.773438 142.617188 294.699219 143.441406 C 294.109375 150.378906 302.710938 159.394531 308.402344 165.359375 C 309.1875 166.183594 309.929688 166.960938 310.597656 167.679688 C 315.277344 172.691406 320.222656 178.125 324.648438 183.894531 L 325.238281 184.675781 C 331.914062 193.460938 331.34375 195.339844 326.765625 205.136719 C 326.730469 205.234375 326.664062 205.390625 326.582031 205.523438 C 326.300781 205.992188 325.804688 206.253906 325.296875 206.253906" style="fill: rgb(93, 74, 25);"></path></g><g id="__id82_sk8ik6c3vq"><path d="M 345.097656 173.601562 C 344.917969 173.601562 344.734375 173.566406 344.558594 173.5 C 343.304688 173.015625 342.109375 172.464844 340.910156 171.8125 C 336.195312 169.3125 331.683594 165.703125 327.320312 162.210938 C 323.324219 159.015625 319.550781 155.996094 316.007812 154.140625 C 315.40625 153.828125 314.601562 153.382812 313.652344 152.855469 C 308.796875 150.167969 298.679688 144.597656 293.273438 144.816406 C 292.414062 144.890625 291.746094 144.210938 291.710938 143.386719 C 291.671875 142.558594 292.3125 141.855469 293.140625 141.816406 C 299.375 141.53125 309.617188 147.191406 315.105469 150.230469 C 316.03125 150.742188 316.808594 151.175781 317.398438 151.484375 C 321.199219 153.472656 325.082031 156.578125 329.191406 159.867188 C 333.449219 163.273438 337.847656 166.792969 342.324219 169.167969 C 343.425781 169.765625 344.507812 170.261719 345.640625 170.699219 C 346.414062 171 346.796875 171.867188 346.5 172.640625 C 346.269531 173.234375 345.699219 173.601562 345.097656 173.601562" style="fill: rgb(93, 74, 25);"></path></g><g id="__id83_sk8ik6c3vq"><path d="M 323.457031 186.308594 C 322.949219 186.308594 322.453125 186.050781 322.171875 185.582031 C 321.742188 184.871094 321.972656 183.949219 322.683594 183.523438 C 325.0625 182.097656 327.695312 180.257812 330.519531 178.058594 C 333.777344 175.5 337.265625 172.503906 340.597656 169.398438 C 341.199219 168.839844 342.15625 168.839844 342.722656 169.429688 C 343.292969 170.019531 343.308594 170.929688 342.730469 171.507812 C 342.71875 171.523438 342.65625 171.578125 342.644531 171.59375 C 339.253906 174.753906 335.695312 177.808594 332.367188 180.421875 C 329.445312 182.699219 326.710938 184.605469 324.226562 186.09375 C 323.988281 186.238281 323.722656 186.308594 323.457031 186.308594" style="fill: rgb(93, 74, 25);"></path></g><g id="__id84_sk8ik6c3vq"><path d="M 338.515625 182.050781 C 335.882812 182.050781 333.429688 181.628906 330.894531 180.640625 C 330.125 180.339844 329.742188 179.46875 330.042969 178.695312 C 330.34375 177.925781 331.21875 177.542969 331.984375 177.84375 C 336.914062 179.765625 341.511719 179.226562 348.785156 177.472656 C 350.394531 177.085938 352.242188 176.890625 354.203125 176.6875 C 357.652344 176.328125 361.21875 175.960938 363.234375 174.515625 C 366.757812 171.988281 367.847656 166.320312 366.476562 157.664062 C 366.101562 155.316406 365.558594 152.78125 364.808594 149.917969 C 364.597656 149.117188 365.078125 148.296875 365.878906 148.085938 C 366.675781 147.878906 367.5 148.355469 367.710938 149.15625 C 368.484375 152.117188 369.050781 154.746094 369.4375 157.191406 C 371.003906 167.066406 369.503906 173.714844 364.980469 176.953125 C 362.316406 178.859375 358.351562 179.273438 354.515625 179.671875 C 352.65625 179.863281 350.902344 180.046875 349.488281 180.390625 C 345.242188 181.414062 341.742188 182.050781 338.515625 182.050781" style="fill: rgb(93, 74, 25);"></path></g><g id="__id85_sk8ik6c3vq"><path d="M 366.257812 151.039062 C 365.980469 151.039062 365.703125 150.960938 365.453125 150.804688 L 363.117188 149.320312 C 356.773438 145.292969 350.777344 141.488281 345.71875 137.300781 C 316.9375 113.589844 286.347656 93.90625 260.222656 77.777344 C 252.953125 73.296875 246.617188 71.109375 239.34375 69.207031 C 237.148438 68.621094 234.617188 67.558594 231.933594 66.429688 C 229.503906 65.40625 226.984375 64.347656 224.640625 63.621094 C 223.847656 63.375 223.40625 62.535156 223.648438 61.746094 C 223.894531 60.953125 224.738281 60.511719 225.527344 60.753906 C 228.015625 61.523438 230.597656 62.613281 233.097656 63.664062 C 235.679688 64.75 238.117188 65.777344 240.109375 66.304688 C 247.640625 68.277344 254.210938 70.546875 261.796875 75.226562 C 288.011719 91.40625 318.707031 111.15625 347.628906 134.984375 C 352.546875 139.058594 358.464844 142.8125 364.726562 146.789062 L 367.0625 148.273438 C 367.765625 148.71875 367.96875 149.644531 367.523438 150.34375 C 367.238281 150.792969 366.753906 151.039062 366.257812 151.039062" style="fill: rgb(93, 74, 25);"></path></g><g id="__id86_sk8ik6c3vq"><path d="M 367.957031 158.929688 C 367.65625 158.929688 367.351562 158.839844 367.089844 158.652344 C 366.414062 158.171875 366.253906 157.234375 366.734375 156.558594 C 367.867188 154.960938 369.195312 153.476562 370.800781 152.015625 C 372.484375 150.46875 374.296875 149.078125 376.054688 147.730469 C 378.949219 145.511719 381.683594 143.410156 383.84375 140.699219 C 386.582031 137.253906 387.15625 132.167969 387.355469 128.117188 C 387.453125 126.066406 387.464844 123.914062 387.472656 121.839844 C 387.492188 117.226562 387.511719 112.457031 388.554688 108.476562 C 388.765625 107.675781 389.589844 107.195312 390.386719 107.40625 C 391.1875 107.617188 391.667969 108.4375 391.457031 109.238281 C 390.511719 112.847656 390.492188 117.222656 390.472656 121.851562 C 390.464844 123.960938 390.453125 126.144531 390.351562 128.265625 C 390.132812 132.761719 389.460938 138.449219 386.191406 142.566406 C 383.804688 145.566406 380.789062 147.878906 377.878906 150.113281 C 376.175781 151.417969 374.414062 152.769531 372.824219 154.230469 C 371.378906 155.546875 370.1875 156.875 369.179688 158.296875 C 368.890625 158.707031 368.425781 158.929688 367.957031 158.929688" style="fill: rgb(93, 74, 25);"></path></g><g id="__id87_sk8ik6c3vq"><path d="M 371.699219 41.03125 C 371.0625 41.03125 370.472656 40.625 370.269531 39.988281 C 370.019531 39.199219 370.453125 38.355469 371.242188 38.105469 C 375.75 36.664062 379.683594 35.222656 383.273438 33.691406 C 406.515625 23.800781 427.832031 11.261719 445.617188 0.304688 C 446.320312 -0.132812 447.246094 0.0859375 447.679688 0.792969 C 448.117188 1.496094 447.894531 2.421875 447.191406 2.855469 C 429.3125 13.875 407.875 26.480469 384.449219 36.453125 C 380.773438 38.019531 376.753906 39.492188 372.15625 40.960938 C 372.003906 41.011719 371.851562 41.03125 371.699219 41.03125" style="fill: rgb(93, 74, 25);"></path></g><g clip-path="url(#__id76_sk8ik6c3vq)" id="__id88_sk8ik6c3vq"><path d="M 388.851562 129.691406 C 388.34375 129.691406 387.84375 129.429688 387.5625 128.957031 C 387.140625 128.246094 387.375 127.324219 388.085938 126.902344 C 391.785156 124.703125 395.65625 122.878906 398.21875 121.667969 L 398.566406 121.503906 C 403.039062 119.386719 407.691406 118.421875 412.191406 117.488281 C 413.851562 117.148438 415.574219 116.789062 417.269531 116.378906 C 421.039062 115.472656 424.828125 114.574219 428.625 113.675781 C 451.355469 108.285156 474.859375 102.710938 497.132812 94.9375 C 497.910156 94.664062 498.769531 95.074219 499.042969 95.855469 C 499.316406 96.640625 498.902344 97.496094 498.121094 97.769531 C 475.703125 105.59375 452.121094 111.1875 429.316406 116.59375 C 425.523438 117.492188 421.738281 118.390625 417.972656 119.296875 C 416.230469 119.71875 414.484375 120.078125 412.800781 120.429688 C 408.273438 121.363281 403.996094 122.25 399.847656 124.214844 L 399.496094 124.378906 C 396.988281 125.566406 393.195312 127.355469 389.617188 129.480469 C 389.378906 129.625 389.113281 129.691406 388.851562 129.691406" style="fill: rgb(93, 74, 25);"></path></g><g id="__id89_sk8ik6c3vq"><path d="M 346.285156 37.539062 C 345.832031 37.539062 345.382812 37.335938 345.085938 36.941406 C 344.589844 36.28125 344.71875 35.339844 345.382812 34.84375 C 348.171875 32.738281 356.988281 25.449219 353.265625 20.03125 C 352.46875 18.886719 350.941406 18.257812 348.472656 18.058594 C 347.644531 17.992188 347.03125 17.269531 347.097656 16.445312 C 347.164062 15.617188 347.898438 15.003906 348.710938 15.070312 C 352.097656 15.339844 354.394531 16.40625 355.730469 18.324219 C 359.320312 23.546875 356.203125 30.4375 347.1875 37.238281 C 346.917969 37.441406 346.597656 37.539062 346.285156 37.539062" style="fill: rgb(93, 74, 25);"></path></g><g id="__id90_sk8ik6c3vq"><path d="M 161.902344 93.828125 C 156.019531 93.828125 149.511719 92.710938 145.421875 89.355469 C 144.515625 88.605469 143.738281 87.765625 143.105469 86.847656 C 142.640625 86.164062 142.8125 85.230469 143.496094 84.761719 C 144.175781 84.292969 145.113281 84.464844 145.582031 85.148438 C 146.050781 85.835938 146.640625 86.472656 147.328125 87.039062 C 152.515625 91.292969 163.652344 91.371094 169.90625 90.066406 C 179.152344 88.140625 185.566406 83.921875 193.617188 78.164062 C 201.890625 72.242188 211.6875 66.734375 224.453125 60.828125 C 225.203125 60.476562 226.097656 60.804688 226.445312 61.558594 C 226.792969 62.308594 226.464844 63.199219 225.714844 63.550781 C 213.125 69.375 203.480469 74.796875 195.363281 80.605469 C 187.011719 86.574219 180.339844 90.960938 170.519531 93.003906 C 168.171875 93.492188 165.132812 93.828125 161.902344 93.828125" style="fill: rgb(93, 74, 25);"></path></g><g id="__id91_sk8ik6c3vq"><path d="M 371.699219 41.03125 C 371.675781 41.03125 371.652344 41.03125 371.625 41.03125 C 364.546875 40.679688 358.015625 39.929688 351.667969 38.746094 C 349.917969 38.414062 348.042969 38.007812 345.929688 37.496094 C 345.089844 37.300781 344.234375 37.097656 343.382812 36.890625 C 340.179688 36.125 336.871094 35.332031 333.558594 34.808594 C 310.886719 31.21875 287.28125 28.816406 263.398438 27.667969 C 259.179688 27.460938 254.898438 27.039062 250.757812 26.632812 L 249.871094 26.542969 C 243.964844 25.953125 237.832031 25.367188 231.964844 25.359375 C 225.640625 25.378906 219.320312 27.023438 213.890625 28.5625 C 213.097656 28.789062 212.265625 28.328125 212.039062 27.53125 C 211.8125 26.734375 212.273438 25.902344 213.070312 25.679688 C 218.691406 24.082031 225.25 22.378906 231.953125 22.359375 C 238 22.359375 244.1875 22.964844 250.167969 23.558594 L 251.054688 23.644531 C 255.15625 24.050781 259.398438 24.46875 263.546875 24.671875 C 287.535156 25.828125 311.25 28.238281 334.027344 31.84375 C 337.453125 32.386719 340.820312 33.191406 344.078125 33.972656 C 344.929688 34.175781 345.777344 34.382812 346.625 34.578125 C 348.695312 35.078125 350.523438 35.476562 352.222656 35.796875 C 358.433594 36.957031 364.832031 37.6875 371.773438 38.035156 C 372.601562 38.074219 373.238281 38.777344 373.199219 39.605469 C 373.15625 40.410156 372.496094 41.03125 371.699219 41.03125" style="fill: rgb(93, 74, 25);"></path></g><g id="__id92_sk8ik6c3vq"><path d="M 250.125 26.5625 C 249.550781 26.5625 249.003906 26.230469 248.753906 25.671875 C 248.417969 24.914062 248.757812 24.027344 249.515625 23.691406 C 253.742188 21.816406 257.351562 20.660156 260.882812 20.058594 C 268.675781 18.734375 276.941406 18.933594 284.9375 19.125 C 287.710938 19.191406 290.574219 19.257812 293.332031 19.257812 C 295.742188 19.257812 298.722656 19.371094 302.171875 19.503906 C 315.746094 20.015625 336.273438 20.789062 347.945312 15.210938 C 348.691406 14.851562 349.589844 15.171875 349.945312 15.917969 C 350.304688 16.664062 349.984375 17.558594 349.238281 17.917969 C 336.898438 23.816406 315.929688 23.023438 302.054688 22.5 C 298.640625 22.371094 295.6875 22.257812 293.332031 22.257812 C 290.539062 22.257812 287.65625 22.191406 284.867188 22.121094 C 277.015625 21.9375 268.894531 21.742188 261.382812 23.015625 C 258.0625 23.585938 254.777344 24.636719 250.734375 26.433594 C 250.535156 26.519531 250.328125 26.5625 250.125 26.5625" style="fill: rgb(93, 74, 25);"></path></g><g id="__id93_sk8ik6c3vq"><path d="M 146.867188 170.761719 C 146.578125 170.761719 146.289062 170.679688 146.03125 170.507812 C 142.925781 168.414062 139.96875 165.96875 137.109375 163.605469 C 136.148438 162.8125 135.191406 162.019531 134.234375 161.246094 C 133.683594 160.792969 133.136719 160.363281 132.585938 159.9375 C 131.933594 159.429688 131.816406 158.484375 132.324219 157.832031 C 132.832031 157.179688 133.773438 157.0625 134.429688 157.570312 C 135.003906 158.015625 135.574219 158.460938 136.132812 158.925781 C 137.085938 159.691406 138.050781 160.492188 139.019531 161.292969 C 141.824219 163.609375 144.726562 166.007812 147.710938 168.019531 C 148.394531 168.484375 148.578125 169.414062 148.113281 170.101562 C 147.824219 170.53125 147.351562 170.761719 146.867188 170.761719" style="fill: rgb(93, 74, 25);"></path></g><g id="__id94_sk8ik6c3vq"><path d="M 130.484375 167.019531 C 130.351562 167.019531 130.222656 167.003906 130.089844 166.96875 C 117.503906 163.558594 116.0625 154.984375 114.539062 145.902344 C 114.097656 143.261719 113.640625 140.535156 112.898438 137.820312 C 112.449219 136.117188 111.894531 134.527344 111.242188 133.074219 C 110.90625 132.320312 111.242188 131.433594 112 131.09375 C 112.757812 130.757812 113.644531 131.09375 113.980469 131.851562 C 114.699219 133.449219 115.308594 135.195312 115.792969 137.039062 C 116.574219 139.886719 117.046875 142.691406 117.5 145.40625 C 118.976562 154.210938 120.140625 161.167969 130.875 164.070312 C 131.675781 164.289062 132.148438 165.113281 131.929688 165.914062 C 131.75 166.582031 131.144531 167.019531 130.484375 167.019531" style="fill: rgb(93, 74, 25);"></path></g><g id="__id95_sk8ik6c3vq"><path d="M 132.726562 164.929688 C 132.714844 164.929688 132.703125 164.929688 132.691406 164.929688 C 131.863281 164.910156 131.207031 164.222656 131.226562 163.394531 C 131.457031 153.925781 128.480469 144.140625 123.464844 137.859375 C 120.757812 134.472656 116.46875 131.730469 113.433594 133.71875 C 113.101562 133.929688 112.8125 134.175781 112.53125 134.480469 C 111.96875 135.089844 111.019531 135.125 110.410156 134.5625 C 109.800781 134 109.765625 133.054688 110.328125 132.445312 C 110.789062 131.941406 111.277344 131.535156 111.8125 131.195312 C 116.414062 128.179688 122.164062 131.425781 125.808594 135.988281 C 131.246094 142.792969 134.472656 153.320312 134.226562 163.46875 C 134.207031 164.28125 133.539062 164.929688 132.726562 164.929688" style="fill: rgb(93, 74, 25);"></path></g><g id="__id96_sk8ik6c3vq"><path d="M 144.34375 87.5 C 144.199219 87.5 144.050781 87.476562 143.902344 87.433594 C 143.109375 87.1875 142.664062 86.347656 142.910156 85.554688 C 142.992188 85.285156 143.101562 85.023438 143.234375 84.753906 C 144.8125 81.53125 147.148438 80.71875 149.410156 79.929688 C 150.359375 79.597656 151.347656 79.253906 152.300781 78.707031 C 156.734375 76.167969 160.789062 72.570312 164.710938 69.09375 C 166.796875 67.246094 168.949219 65.335938 171.164062 63.570312 C 177.898438 58.195312 184.261719 52.050781 190.414062 46.105469 C 193.3125 43.304688 196.3125 40.40625 199.316406 37.621094 C 199.328125 37.609375 199.386719 37.558594 199.441406 37.507812 C 199.457031 37.492188 199.507812 37.445312 199.523438 37.429688 C 203.996094 33.3125 208.246094 29.566406 212.515625 25.972656 C 213.148438 25.441406 214.097656 25.519531 214.628906 26.15625 C 215.164062 26.789062 215.082031 27.734375 214.445312 28.269531 C 210.210938 31.832031 205.992188 35.550781 201.554688 39.636719 C 201.550781 39.644531 201.492188 39.699219 201.433594 39.753906 C 201.417969 39.765625 201.371094 39.808594 201.355469 39.820312 C 198.375 42.585938 195.386719 45.472656 192.496094 48.261719 C 186.296875 54.253906 179.882812 60.449219 173.035156 65.917969 C 170.878906 67.632812 168.757812 69.515625 166.699219 71.339844 C 162.664062 74.914062 158.492188 78.617188 153.789062 81.3125 C 152.59375 81.992188 151.425781 82.402344 150.398438 82.761719 C 148.40625 83.457031 146.964844 83.960938 145.925781 86.082031 C 145.863281 86.203125 145.816406 86.316406 145.777344 86.441406 C 145.578125 87.085938 144.984375 87.5 144.34375 87.5" style="fill: rgb(93, 74, 25);"></path></g><g id="__id97_sk8ik6c3vq"><path d="M 114.347656 138.921875 C 113.820312 138.921875 113.3125 138.648438 113.035156 138.15625 C 112.335938 136.902344 111.421875 135.667969 110.324219 134.480469 C 105.808594 129.664062 98.859375 126.296875 92.726562 123.324219 C 91.789062 122.867188 90.875 122.425781 89.992188 121.988281 C 73.710938 113.933594 57.523438 105.1875 42.335938 96.921875 C 29.308594 89.832031 15.417969 84.421875 1.988281 79.191406 L 0.957031 78.789062 C 0.183594 78.488281 -0.199219 77.617188 0.101562 76.847656 C 0.402344 76.074219 1.273438 75.691406 2.042969 75.992188 L 3.078125 76.394531 C 16.597656 81.660156 30.578125 87.105469 43.773438 94.285156 C 58.929688 102.539062 75.089844 111.269531 91.324219 119.300781 C 92.199219 119.734375 93.105469 120.175781 94.035156 120.625 C 100.402344 123.710938 107.617188 127.207031 112.523438 132.4375 C 113.785156 133.804688 114.835938 135.234375 115.652344 136.691406 C 116.058594 137.414062 115.800781 138.324219 115.078125 138.730469 C 114.847656 138.859375 114.59375 138.921875 114.347656 138.921875" style="fill: rgb(93, 74, 25);"></path></g><g id="__id98_sk8ik6c3vq"><path d="M 155.597656 44.894531 C 150.308594 44.894531 144.972656 44.402344 139.59375 43.09375 C 130.253906 40.824219 120.785156 37.855469 112.757812 35.253906 C 105.976562 33.046875 100.082031 29.546875 94.378906 26.164062 C 91.152344 24.25 87.816406 22.269531 84.328125 20.523438 L 80.667969 18.695312 C 70.667969 13.703125 60.332031 8.539062 50.484375 2.796875 C 49.769531 2.378906 49.527344 1.460938 49.945312 0.746094 C 50.363281 0.03125 51.28125 -0.210938 51.996094 0.207031 C 61.761719 5.898438 72.054688 11.039062 82.007812 16.011719 L 85.671875 17.84375 C 89.253906 19.632812 92.636719 21.640625 95.910156 23.585938 C 101.726562 27.035156 107.222656 30.296875 113.683594 32.398438 C 121.660156 34.984375 131.058594 37.933594 140.300781 40.179688 C 153.507812 43.386719 166.144531 41.523438 179.519531 39.550781 C 186.277344 38.550781 193.265625 37.519531 200.273438 37.222656 C 201.117188 37.183594 201.800781 37.832031 201.835938 38.65625 C 201.871094 39.484375 201.226562 40.183594 200.402344 40.21875 C 193.550781 40.507812 186.640625 41.527344 179.957031 42.515625 C 171.988281 43.691406 163.851562 44.894531 155.597656 44.894531" style="fill: rgb(93, 74, 25);"></path></g><g id="__id99_sk8ik6c3vq"><path d="M 1.5 78.890625 C 1.359375 78.890625 1.21875 78.871094 1.078125 78.828125 C 0.28125 78.597656 -0.171875 77.761719 0.0625 76.96875 C 8.703125 47.574219 27.953125 18.210938 50.304688 0.328125 C 50.953125 -0.1875 51.894531 -0.0820312 52.410156 0.566406 C 52.929688 1.210938 52.824219 2.15625 52.175781 2.671875 C 30.285156 20.1875 11.417969 48.980469 2.9375 77.816406 C 2.746094 78.46875 2.148438 78.890625 1.5 78.890625" style="fill: rgb(93, 74, 25);"></path></g><g clip-path="url(#__id77_sk8ik6c3vq)" id="__id100_sk8ik6c3vq"><path d="M 497.625 97.851562 C 496.933594 97.851562 496.3125 97.371094 496.160156 96.671875 C 492.503906 79.796875 487.6875 61.664062 477.285156 43.394531 C 467.183594 25.636719 457.355469 13.089844 445.421875 2.710938 C 444.796875 2.167969 444.726562 1.21875 445.273438 0.59375 C 445.816406 -0.03125 446.761719 -0.0976562 447.390625 0.449219 C 459.589844 11.058594 469.613281 23.847656 479.890625 41.910156 C 490.492188 60.527344 495.386719 78.925781 499.09375 96.035156 C 499.269531 96.84375 498.753906 97.640625 497.945312 97.816406 C 497.839844 97.839844 497.730469 97.851562 497.625 97.851562" style="fill: rgb(93, 74, 25);"></path></g><g id="__id101_sk8ik6c3vq"><path d="M 130.484375 167.019531 C 129.957031 167.019531 129.445312 166.742188 129.171875 166.25 C 128.769531 165.527344 129.027344 164.613281 129.753906 164.210938 C 131.382812 163.300781 132.496094 161.734375 133.875 159.332031 C 134.285156 158.613281 135.203125 158.367188 135.921875 158.777344 C 136.640625 159.191406 136.890625 160.105469 136.476562 160.824219 C 135.167969 163.109375 133.683594 165.453125 131.214844 166.832031 C 130.980469 166.960938 130.730469 167.019531 130.484375 167.019531" style="fill: rgb(93, 74, 25);"></path></g><g id="__id102_sk8ik6c3vq"><path d="M 188.875 214.902344 C 187.375 214.902344 186.078125 214.582031 184.96875 213.945312 C 184.054688 213.402344 183.4375 212.652344 182.894531 211.988281 C 182.269531 211.195312 181.59375 210.4375 180.875 209.632812 C 178.140625 206.566406 175.046875 203.097656 175.359375 198.871094 C 175.398438 198.242188 175.519531 197.632812 175.734375 197.015625 C 176.824219 193.589844 178.09375 190.355469 179.191406 187.644531 L 180.015625 185.628906 C 181.007812 183.214844 182.035156 180.714844 182.980469 178.199219 C 184.550781 174.042969 184.679688 169.863281 184.679688 165.226562 C 184.679688 164.398438 185.351562 163.726562 186.179688 163.726562 C 187.007812 163.726562 187.679688 164.398438 187.679688 165.226562 C 187.679688 170.164062 187.535156 174.628906 185.789062 179.257812 C 184.824219 181.816406 183.792969 184.332031 182.792969 186.769531 L 181.96875 188.773438 C 180.894531 191.425781 179.652344 194.597656 178.578125 197.957031 C 178.445312 198.351562 178.375 198.699219 178.351562 199.074219 C 178.132812 202.050781 180.777344 205.019531 183.113281 207.636719 C 183.863281 208.476562 184.570312 209.269531 185.191406 210.0625 C 185.636719 210.605469 186.035156 211.089844 186.472656 211.351562 C 188.304688 212.394531 192.53125 212.433594 202.164062 206.589844 C 202.871094 206.160156 203.792969 206.386719 204.222656 207.09375 C 204.652344 207.800781 204.429688 208.722656 203.71875 209.152344 C 197.359375 213.011719 192.515625 214.902344 188.875 214.902344" style="fill: rgb(93, 74, 25);"></path></g><g id="__id103_sk8ik6c3vq"><path d="M 209.445312 187.070312 C 208.613281 187.070312 207.945312 186.402344 207.945312 185.570312 L 207.941406 184.582031 C 207.9375 183.914062 207.933594 183.25 207.945312 182.585938 C 207.945312 182.105469 207.945312 181.570312 207.914062 181.003906 C 207.523438 172.789062 203.765625 162.296875 197.5625 159.019531 C 196.980469 158.695312 196.398438 158.453125 195.746094 158.257812 C 194.441406 157.882812 193.253906 158.933594 191.71875 160.464844 L 191.429688 160.753906 C 190.484375 161.699219 189.726562 162.808594 188.921875 163.984375 C 188.445312 164.679688 187.953125 165.398438 187.410156 166.097656 C 187.371094 166.148438 187.328125 166.195312 187.285156 166.238281 C 186.703125 166.820312 185.738281 166.847656 185.152344 166.269531 C 184.566406 165.695312 184.527344 164.78125 185.09375 164.1875 C 185.5625 163.582031 185.992188 162.953125 186.445312 162.289062 C 187.289062 161.054688 188.164062 159.777344 189.3125 158.628906 L 189.601562 158.34375 C 191.140625 156.804688 193.472656 154.472656 196.59375 155.378906 C 197.46875 155.640625 198.25 155.96875 198.996094 156.382812 C 207.078125 160.652344 210.554688 173.359375 210.910156 180.855469 C 210.941406 181.46875 210.945312 182.054688 210.945312 182.609375 C 210.933594 183.277344 210.9375 183.921875 210.941406 184.566406 L 210.945312 185.570312 C 210.945312 186.402344 210.273438 187.070312 209.445312 187.070312" style="fill: rgb(93, 74, 25);"></path></g><g id="__id104_sk8ik6c3vq"><path d="M 173.925781 201.542969 C 173.765625 201.542969 173.605469 201.519531 173.449219 201.464844 L 173.308594 201.417969 C 171.082031 200.660156 168.757812 200.246094 166.511719 199.84375 L 165.675781 199.695312 C 163.019531 199.214844 160.8125 198.710938 158.664062 197.828125 C 156 196.722656 153.851562 195.128906 152.097656 192.957031 C 149.730469 190.027344 147.699219 186.3125 146.222656 182.214844 C 146.214844 182.195312 146.210938 182.175781 146.203125 182.15625 C 145.621094 180.613281 145.136719 179.019531 144.757812 177.421875 C 144.164062 174.921875 145.402344 172.09375 146.726562 169.410156 L 147.242188 168.375 C 148.605469 165.542969 149.945312 162.671875 151.28125 159.796875 C 152.570312 157.023438 153.863281 154.25 155.1875 151.492188 C 156.867188 148.003906 158.863281 143.386719 159.410156 138.613281 C 159.414062 138.566406 159.417969 138.523438 159.421875 138.5 C 159.421875 137.667969 160.09375 137.027344 160.921875 137.027344 C 161.75 137.027344 162.417969 137.734375 162.417969 138.5625 C 162.417969 138.667969 162.410156 138.761719 162.398438 138.851562 C 161.800781 144.160156 159.675781 149.085938 157.890625 152.792969 C 156.570312 155.535156 155.285156 158.300781 154 161.0625 C 152.65625 163.949219 151.316406 166.835938 149.9375 169.695312 L 149.414062 170.742188 C 148.617188 172.359375 147.28125 175.070312 147.675781 176.730469 C 148.027344 178.214844 148.480469 179.695312 149.023438 181.128906 C 149.03125 181.15625 149.042969 181.1875 149.050781 181.214844 C 149.050781 181.21875 149.054688 181.21875 149.054688 181.21875 C 150.414062 185 152.273438 188.402344 154.429688 191.070312 C 155.882812 192.871094 157.59375 194.136719 159.808594 195.054688 C 161.710938 195.835938 163.742188 196.296875 166.207031 196.742188 L 167.035156 196.890625 C 169.394531 197.3125 171.835938 197.746094 174.265625 198.574219 L 174.398438 198.621094 C 175.183594 198.882812 175.609375 199.730469 175.347656 200.519531 C 175.136719 201.144531 174.550781 201.542969 173.925781 201.542969" style="fill: rgb(93, 74, 25);"></path></g><g id="__id105_sk8ik6c3vq"><path d="M 180.296875 189.714844 C 177.578125 189.714844 174.691406 188.339844 172.84375 187.007812 C 168.085938 183.59375 168.679688 179.175781 169.886719 175.300781 L 169.988281 174.980469 C 170.640625 172.953125 171.398438 170.855469 172.128906 168.824219 C 173.707031 164.4375 175.339844 159.898438 176.160156 155.5 C 176.921875 151.359375 174.691406 148.339844 172.109375 144.847656 L 171.574219 144.125 C 171.28125 143.722656 170.992188 143.308594 170.710938 142.898438 C 169.457031 141.078125 168.375 139.507812 166.421875 139 C 164.640625 138.542969 163.089844 138.800781 161.824219 139.757812 C 161.242188 140.347656 160.277344 140.359375 159.6875 139.773438 C 159.101562 139.191406 159.085938 138.25 159.667969 137.660156 C 159.785156 137.542969 159.902344 137.449219 160.019531 137.359375 C 162.015625 135.851562 164.492188 135.410156 167.167969 136.09375 C 170.210938 136.882812 171.789062 139.171875 173.179688 141.195312 C 173.449219 141.582031 173.714844 141.972656 173.992188 142.351562 L 174.519531 143.066406 C 177.265625 146.777344 180.105469 150.621094 179.109375 156.046875 C 178.242188 160.6875 176.570312 165.339844 174.949219 169.839844 C 174.195312 171.941406 173.480469 173.921875 172.839844 175.914062 L 172.742188 176.222656 C 171.40625 180.503906 171.871094 182.617188 174.59375 184.570312 C 176.046875 185.617188 178.460938 186.777344 180.515625 186.710938 C 181.332031 186.652344 182.042969 187.3125 182.078125 188.140625 C 182.117188 188.96875 181.476562 189.667969 180.648438 189.707031 C 180.53125 189.710938 180.414062 189.714844 180.296875 189.714844" style="fill: rgb(93, 74, 25);"></path></g><g id="__id106_sk8ik6c3vq"><path d="M 173.78125 201.496094 C 173.136719 201.496094 172.539062 201.078125 172.347656 200.425781 C 172.109375 199.632812 172.558594 198.796875 173.351562 198.558594 L 173.804688 198.417969 C 174.636719 198.152344 175.492188 197.875 176.351562 197.570312 C 177.128906 197.289062 177.988281 197.695312 178.265625 198.480469 C 178.546875 199.257812 178.140625 200.117188 177.359375 200.394531 C 176.472656 200.710938 175.582031 201 174.695312 201.285156 L 174.214844 201.433594 C 174.070312 201.476562 173.925781 201.496094 173.78125 201.496094" style="fill: rgb(93, 74, 25);"></path></g><g id="__id107_sk8ik6c3vq"><path d="M 216.648438 223.113281 C 211.964844 223.113281 207.914062 221.476562 204.5625 218.207031 C 201.5625 215.28125 201.375 211.484375 201.441406 207.84375 C 201.441406 207.402344 201.449219 206.933594 201.457031 206.460938 C 201.464844 206.003906 201.472656 205.539062 201.472656 205.078125 L 201.476562 203.585938 C 201.492188 200.667969 201.507812 197.910156 200.996094 195.136719 C 200.847656 194.308594 200.792969 193.546875 200.738281 192.808594 C 200.660156 191.785156 200.589844 190.816406 200.269531 189.847656 C 200.191406 189.605469 200.105469 189.371094 200.019531 189.140625 L 199.910156 188.847656 C 199.628906 188.066406 200.027344 187.207031 200.804688 186.925781 C 201.582031 186.640625 202.445312 187.039062 202.730469 187.820312 L 202.828125 188.09375 C 202.933594 188.367188 203.035156 188.648438 203.121094 188.921875 C 203.554688 190.226562 203.644531 191.425781 203.730469 192.585938 C 203.78125 193.277344 203.828125 193.929688 203.949219 194.601562 C 204.507812 197.644531 204.492188 200.671875 204.476562 203.601562 L 204.472656 205.078125 C 204.472656 205.558594 204.464844 206.035156 204.457031 206.511719 C 204.449219 206.96875 204.441406 207.421875 204.441406 207.871094 C 204.382812 211.125 204.511719 213.964844 206.65625 216.058594 C 211 220.292969 216.597656 221.207031 223.773438 218.855469 C 225.210938 218.386719 226.714844 217.789062 228.242188 217.082031 C 229.859375 216.332031 231.589844 215.421875 233.527344 214.292969 C 234.246094 213.878906 235.164062 214.121094 235.578125 214.835938 C 235.996094 215.550781 235.753906 216.46875 235.035156 216.886719 C 233.015625 218.0625 231.203125 219.015625 229.503906 219.804688 C 227.867188 220.5625 226.253906 221.203125 224.707031 221.707031 C 221.84375 222.644531 219.15625 223.113281 216.648438 223.113281" style="fill: rgb(93, 74, 25);"></path></g><g id="__id108_sk8ik6c3vq"><path d="M 201.320312 189.832031 C 200.792969 189.832031 200.28125 189.554688 200.007812 189.058594 C 199.605469 188.332031 199.867188 187.421875 200.59375 187.019531 C 202.28125 186.089844 204.203125 185.507812 205.75 185.042969 C 207.027344 184.652344 208.089844 184.359375 209.089844 184.113281 C 211.277344 183.570312 213.300781 183.25 215.273438 183.125 C 216.09375 183.074219 216.8125 183.699219 216.867188 184.527344 C 216.917969 185.355469 216.289062 186.066406 215.460938 186.117188 C 213.671875 186.230469 211.820312 186.527344 209.804688 187.027344 C 208.855469 187.261719 207.84375 187.539062 206.621094 187.914062 C 204.824219 188.453125 203.347656 188.925781 202.046875 189.644531 C 201.816406 189.773438 201.566406 189.832031 201.320312 189.832031" style="fill: rgb(93, 74, 25);"></path></g><g id="__id109_sk8ik6c3vq"><path d="M 227.808594 212.019531 C 227.066406 212.019531 226.421875 211.472656 226.324219 210.714844 C 226.046875 208.597656 225.695312 206.878906 225.222656 205.3125 C 224.972656 204.480469 224.734375 203.632812 224.492188 202.777344 C 223.460938 199.109375 222.394531 195.320312 220.292969 192.40625 C 219.589844 191.4375 218.796875 190.519531 217.957031 189.554688 C 217.386719 188.894531 216.816406 188.234375 216.273438 187.554688 C 215.777344 186.945312 215.179688 186.375 214.449219 185.808594 C 213.796875 185.300781 213.675781 184.355469 214.183594 183.703125 C 214.691406 183.046875 215.632812 182.929688 216.289062 183.4375 C 217.199219 184.144531 217.960938 184.875 218.605469 185.671875 C 219.132812 186.328125 219.679688 186.957031 220.226562 187.589844 C 221.070312 188.5625 221.941406 189.566406 222.726562 190.648438 C 225.136719 194 226.277344 198.046875 227.378906 201.964844 C 227.617188 202.800781 227.851562 203.632812 228.09375 204.445312 C 228.617188 206.171875 229 208.039062 229.300781 210.324219 C 229.40625 211.148438 228.828125 211.902344 228.007812 212.007812 C 227.941406 212.015625 227.875 212.019531 227.808594 212.019531" style="fill: rgb(93, 74, 25);"></path></g><g id="__id110_sk8ik6c3vq"><path d="M 209.410156 182.425781 C 209.164062 182.425781 208.914062 182.363281 208.683594 182.238281 C 208.507812 182.140625 208.351562 182.042969 208.175781 181.925781 C 207.484375 181.464844 207.300781 180.535156 207.757812 179.84375 C 208.21875 179.15625 209.148438 178.96875 209.839844 179.429688 C 209.945312 179.5 210.035156 179.558594 210.140625 179.613281 C 210.863281 180.015625 211.125 180.929688 210.722656 181.652344 C 210.449219 182.148438 209.9375 182.425781 209.410156 182.425781" style="fill: rgb(93, 74, 25);"></path></g><g id="__id111_sk8ik6c3vq"><path d="M 234.546875 216.925781 Z M 234.648438 217.023438 Z M 235.75 217.527344 C 235.324219 217.527344 234.902344 217.34375 234.609375 217.003906 C 234.5625 216.976562 234.511719 216.960938 234.460938 216.941406 C 234.308594 216.886719 234.148438 216.820312 234 216.742188 C 233.648438 216.597656 233.269531 216.425781 232.867188 216.175781 C 231.542969 215.375 230.511719 214.699219 229.539062 214 C 228.785156 213.460938 228.132812 212.855469 227.5 212.269531 L 227.109375 211.90625 C 227.019531 211.820312 226.976562 211.769531 226.929688 211.734375 C 226.296875 211.222656 226.15625 210.28125 226.644531 209.636719 C 227.136719 208.988281 228.023438 208.832031 228.683594 209.300781 C 228.859375 209.425781 229.039062 209.59375 229.1875 209.742188 L 229.539062 210.066406 C 230.128906 210.613281 230.6875 211.132812 231.289062 211.5625 C 232.195312 212.21875 233.167969 212.851562 234.4375 213.617188 C 234.679688 213.769531 234.910156 213.875 235.210938 214 C 235.269531 214.023438 235.328125 214.050781 235.386719 214.082031 C 235.421875 214.101562 235.472656 214.117188 235.527344 214.136719 C 235.847656 214.261719 236.488281 214.507812 236.949219 215.128906 C 237.445312 215.789062 237.308594 216.730469 236.648438 217.226562 C 236.378906 217.429688 236.0625 217.527344 235.75 217.527344" style="fill: rgb(93, 74, 25);"></path></g></g></svg>
