<svg xmlns="http://www.w3.org/2000/svg" xmlns:xlink="http://www.w3.org/1999/xlink" preserveAspectRatio="xMidYMid meet" version="1.0" viewBox="-0.2 -0.2 337.6 501.3" zoomAndPan="magnify" style="fill: rgb(0, 0, 0);" role="img" aria-label="Rustic Organic Leaves"><defs><clipPath id="__id372_sa0a5ddipq"><path d="M 257 97 L 337.429688 97 L 337.429688 186 L 257 186 Z M 257 97"></path></clipPath><clipPath id="__id373_sa0a5ddipq"><path d="M 263 97 L 337.429688 97 L 337.429688 187 L 263 187 Z M 263 97"></path></clipPath><clipPath id="__id374_sa0a5ddipq"><path d="M 105 113 L 167 113 L 167 501.140625 L 105 501.140625 Z M 105 113"></path></clipPath></defs><g><g id="__id375_sa0a5ddipq"><path d="M 244.507812 292.453125 C 244.316406 292.453125 244.121094 292.414062 243.933594 292.339844 C 243.171875 292.023438 242.804688 291.148438 243.121094 290.378906 L 243.214844 290.136719 C 243.257812 290.023438 243.300781 289.910156 243.34375 289.800781 C 244.96875 285.640625 246.015625 281.753906 246.527344 277.945312 C 246.929688 274.976562 247.054688 272.140625 247.179688 269.398438 C 247.464844 263.105469 247.734375 257.160156 251.121094 250.503906 C 256.191406 240.53125 264.367188 231.714844 270.921875 225.148438 C 274.527344 221.53125 278.480469 217.882812 283.738281 213.320312 C 285.886719 211.449219 288.046875 209.601562 290.203125 207.761719 C 298.050781 201.054688 306.164062 194.117188 313.300781 186.269531 C 314.4375 185.03125 315.554688 183.757812 316.71875 182.363281 C 317.25 181.730469 318.191406 181.644531 318.832031 182.175781 C 319.46875 182.707031 319.550781 183.652344 319.019531 184.289062 C 317.824219 185.71875 316.675781 187.03125 315.511719 188.296875 C 308.257812 196.277344 300.070312 203.273438 292.152344 210.039062 C 290.003906 211.878906 287.851562 213.71875 285.707031 215.585938 C 280.503906 220.101562 276.601562 223.703125 273.046875 227.269531 C 266.644531 233.679688 258.675781 242.265625 253.792969 251.863281 C 250.703125 257.941406 250.449219 263.574219 250.179688 269.535156 C 250.050781 272.34375 249.917969 275.246094 249.5 278.347656 C 248.957031 282.394531 247.851562 286.503906 246.128906 290.917969 L 246.027344 291.183594 C 245.984375 291.296875 245.941406 291.410156 245.894531 291.523438 C 245.65625 292.101562 245.097656 292.453125 244.507812 292.453125" style="fill: rgb(93, 74, 25);"></path></g><g id="__id376_sa0a5ddipq"><path d="M 187.324219 133.390625 C 186.753906 133.390625 186.210938 133.066406 185.957031 132.511719 C 185.613281 131.757812 185.949219 130.867188 186.703125 130.527344 C 187.433594 130.195312 188.199219 129.808594 189.121094 129.308594 C 201.824219 122.371094 208.222656 110.039062 206.234375 96.324219 C 205.257812 89.589844 202.925781 82.390625 199.292969 74.925781 C 196.109375 68.429688 191.953125 61.742188 186.9375 55.050781 C 185.945312 53.730469 184.945312 52.402344 183.941406 51.074219 C 176.082031 40.679688 167.957031 29.925781 162.914062 17.714844 L 162.835938 17.519531 C 162.785156 17.398438 162.734375 17.273438 162.6875 17.148438 C 160.894531 12.628906 159.363281 6.851562 158.597656 1.722656 C 158.476562 0.902344 159.039062 0.140625 159.859375 0.015625 C 160.679688 -0.109375 161.441406 0.460938 161.566406 1.277344 C 162.296875 6.195312 163.761719 11.722656 165.484375 16.066406 L 165.695312 16.585938 C 170.582031 28.425781 178.589844 39.019531 186.335938 49.265625 C 187.339844 50.597656 188.34375 51.925781 189.339844 53.253906 C 194.464844 60.09375 198.722656 66.941406 201.988281 73.609375 C 205.757812 81.355469 208.183594 88.851562 209.203125 95.894531 C 211.378906 110.902344 204.40625 124.378906 190.554688 131.945312 C 189.566406 132.480469 188.738281 132.894531 187.945312 133.257812 C 187.742188 133.347656 187.53125 133.390625 187.324219 133.390625" style="fill: rgb(93, 74, 25);"></path></g><g id="__id377_sa0a5ddipq"><path d="M 180.882812 134.097656 C 176.632812 134.097656 172.410156 133.214844 168.257812 131.453125 C 162.914062 129.175781 158.117188 123.972656 155.410156 119.867188 C 150.191406 111.898438 151.023438 101.3125 151.757812 91.976562 C 151.921875 89.882812 152.074219 87.90625 152.164062 86.003906 C 152.519531 78.3125 151.324219 70.449219 150.171875 62.847656 L 150.003906 61.734375 C 147.410156 44.609375 150.082031 25.882812 158.664062 1.011719 C 158.933594 0.226562 159.785156 -0.1875 160.570312 0.0820312 C 161.355469 0.351562 161.769531 1.207031 161.5 1.988281 C 153.085938 26.378906 150.453125 44.664062 152.96875 61.285156 L 153.136719 62.398438 C 154.3125 70.144531 155.527344 78.152344 155.160156 86.140625 C 155.070312 88.09375 154.914062 90.09375 154.746094 92.210938 C 154.050781 101.070312 153.261719 111.113281 157.917969 118.21875 C 160.382812 121.960938 164.703125 126.675781 169.433594 128.691406 C 175.1875 131.132812 181.09375 131.71875 186.980469 130.425781 C 187.019531 130.417969 187.058594 130.410156 187.097656 130.40625 C 187.855469 130.238281 188.644531 130.023438 189.449219 129.769531 C 190.242188 129.515625 191.085938 129.957031 191.332031 130.746094 C 191.582031 131.535156 191.144531 132.378906 190.355469 132.628906 C 189.429688 132.921875 188.519531 133.164062 187.644531 133.355469 C 187.601562 133.367188 187.5625 133.371094 187.523438 133.378906 C 185.308594 133.855469 183.089844 134.097656 180.882812 134.097656" style="fill: rgb(93, 74, 25);"></path></g><g id="__id378_sa0a5ddipq"><path d="M 185.703125 111.183594 C 185.296875 111.183594 184.890625 111.019531 184.59375 110.695312 C 184.039062 110.085938 184.082031 109.136719 184.691406 108.578125 C 194.472656 99.652344 198.238281 79.882812 199.160156 74.035156 C 199.289062 73.21875 200.0625 72.660156 200.875 72.789062 C 201.695312 72.917969 202.253906 73.6875 202.125 74.503906 C 200.894531 82.308594 196.929688 101.472656 186.714844 110.792969 C 186.425781 111.054688 186.066406 111.183594 185.703125 111.183594" style="fill: rgb(93, 74, 25);"></path></g><g id="__id379_sa0a5ddipq"><path d="M 163.074219 291.179688 C 162.910156 291.179688 162.742188 291.152344 162.582031 291.097656 C 161.800781 290.824219 161.386719 289.972656 161.65625 289.1875 C 166.5 275.234375 172.710938 256.832031 177.792969 238.230469 C 178.011719 237.429688 178.835938 236.960938 179.636719 237.179688 C 180.433594 237.394531 180.90625 238.222656 180.6875 239.019531 C 175.578125 257.707031 169.347656 276.171875 164.488281 290.171875 C 164.277344 290.789062 163.695312 291.179688 163.074219 291.179688" style="fill: rgb(93, 74, 25);"></path></g><g id="__id380_sa0a5ddipq"><path d="M 190.863281 177.535156 C 190.824219 177.535156 190.78125 177.535156 190.742188 177.53125 C 189.917969 177.464844 189.300781 176.742188 189.367188 175.917969 C 190.605469 160.390625 190.285156 145.410156 188.414062 131.398438 L 188.34375 130.804688 C 187.574219 125.195312 186.558594 119.6875 185.335938 114.472656 C 184.992188 112.996094 184.628906 111.523438 184.253906 110.058594 C 181.839844 100.75 178.6875 91.445312 175.644531 82.449219 C 172.238281 72.386719 168.71875 61.984375 166.179688 51.457031 C 163.164062 38.96875 161.957031 27.21875 162.589844 16.527344 C 162.640625 15.699219 163.339844 15.074219 164.179688 15.121094 C 165.003906 15.167969 165.636719 15.878906 165.585938 16.707031 C 164.96875 27.097656 166.152344 38.554688 169.097656 50.753906 C 171.601562 61.148438 175.101562 71.488281 178.484375 81.484375 C 181.550781 90.535156 184.714844 99.890625 187.15625 109.308594 C 187.539062 110.796875 187.910156 112.292969 188.257812 113.789062 C 189.503906 119.09375 190.53125 124.691406 191.320312 130.425781 L 191.390625 131.023438 C 193.285156 145.226562 193.613281 160.417969 192.355469 176.15625 C 192.296875 176.941406 191.636719 177.535156 190.863281 177.535156" style="fill: rgb(93, 74, 25);"></path></g><g id="__id381_sa0a5ddipq"><path d="M 134.730469 221.757812 C 134.652344 221.757812 134.574219 221.753906 134.5 221.742188 C 133.890625 221.648438 133.277344 221.53125 132.679688 221.402344 C 115.546875 217.929688 101.230469 202.566406 97.890625 184.039062 C 97.324219 180.886719 96.90625 177.820312 96.644531 174.929688 C 95.535156 162.671875 96.960938 151.546875 100.894531 141.867188 C 104.339844 133.359375 108.984375 125.339844 113.476562 117.585938 C 115.101562 114.777344 116.78125 111.875 118.375 109.003906 C 118.777344 108.277344 119.691406 108.019531 120.414062 108.417969 C 121.140625 108.820312 121.402344 109.734375 121 110.457031 C 119.394531 113.355469 117.703125 116.269531 116.070312 119.089844 C 111.632812 126.753906 107.042969 134.679688 103.671875 142.992188 C 99.921875 152.226562 98.566406 162.878906 99.632812 174.660156 C 99.882812 177.46875 100.292969 180.441406 100.84375 183.507812 C 103.972656 200.855469 117.316406 215.230469 133.292969 218.464844 C 133.851562 218.585938 134.402344 218.691406 134.953125 218.777344 C 135.773438 218.902344 136.335938 219.667969 136.210938 220.488281 C 136.09375 221.226562 135.457031 221.757812 134.730469 221.757812" style="fill: rgb(93, 74, 25);"></path></g><g id="__id382_sa0a5ddipq"><path d="M 133.730469 223.230469 C 133.4375 223.230469 133.136719 223.144531 132.875 222.964844 C 132.195312 222.488281 132.027344 221.554688 132.503906 220.875 C 132.828125 220.410156 133.152344 219.933594 133.464844 219.445312 C 140.808594 208.355469 145.429688 197.199219 146.488281 188.023438 C 147.1875 181.96875 145.074219 175.871094 143.027344 169.976562 C 142.742188 169.144531 142.457031 168.324219 142.179688 167.507812 C 139.417969 159.308594 135.300781 151.675781 131.316406 144.296875 C 130.261719 142.335938 129.199219 140.371094 128.160156 138.394531 C 127.074219 136.339844 126.105469 134.4375 125.203125 132.578125 C 122.574219 127.175781 120.5625 121.382812 119.226562 115.355469 C 118.820312 113.578125 118.476562 111.757812 118.203125 109.953125 C 118.082031 109.132812 118.644531 108.367188 119.464844 108.246094 C 120.285156 108.128906 121.046875 108.6875 121.171875 109.507812 C 121.429688 111.238281 121.761719 112.984375 122.152344 114.695312 C 123.441406 120.503906 125.371094 126.074219 127.902344 131.269531 C 128.789062 133.09375 129.742188 134.964844 130.816406 136.996094 C 131.851562 138.96875 132.90625 140.921875 133.957031 142.871094 C 138 150.363281 142.179688 158.109375 145.023438 166.546875 C 145.296875 167.355469 145.578125 168.171875 145.863281 168.992188 C 148.015625 175.207031 150.242188 181.632812 149.46875 188.367188 C 148.359375 198.003906 143.566406 209.625 135.976562 221.085938 C 135.652344 221.589844 135.308594 222.097656 134.964844 222.589844 C 134.671875 223.007812 134.207031 223.230469 133.730469 223.230469" style="fill: rgb(93, 74, 25);"></path></g><g id="__id383_sa0a5ddipq"><path d="M 118.601562 155.710938 C 118.359375 155.710938 118.113281 155.648438 117.882812 155.523438 C 117.15625 155.125 116.890625 154.214844 117.289062 153.488281 C 120.941406 146.835938 124.554688 141.363281 128.328125 136.746094 C 128.855469 136.105469 129.800781 136.011719 130.441406 136.535156 C 131.082031 137.058594 131.175781 138.007812 130.652344 138.648438 C 126.992188 143.117188 123.480469 148.445312 119.921875 154.929688 C 119.648438 155.429688 119.132812 155.710938 118.601562 155.710938" style="fill: rgb(93, 74, 25);"></path></g><g id="__id384_sa0a5ddipq"><path d="M 124.421875 195.378906 C 124.0625 195.378906 123.707031 195.25 123.421875 194.992188 C 119.859375 191.800781 115.90625 188.890625 112.085938 186.078125 C 110.105469 184.621094 108.234375 183.242188 106.429688 181.84375 C 103.535156 179.578125 100.257812 177.695312 97.410156 176.105469 C 96.6875 175.703125 96.425781 174.789062 96.832031 174.066406 C 97.234375 173.34375 98.148438 173.082031 98.871094 173.488281 C 101.816406 175.128906 105.214844 177.082031 108.273438 179.476562 C 110.042969 180.851562 111.898438 182.214844 113.863281 183.660156 C 117.742188 186.515625 121.757812 189.46875 125.425781 192.761719 C 126.039062 193.3125 126.089844 194.261719 125.539062 194.878906 C 125.242188 195.210938 124.832031 195.378906 124.421875 195.378906" style="fill: rgb(93, 74, 25);"></path></g><g id="__id385_sa0a5ddipq"><path d="M 161.164062 340.726562 C 160.671875 340.726562 160.191406 340.484375 159.902344 340.039062 C 159.453125 339.34375 159.65625 338.414062 160.351562 337.96875 C 167.796875 333.171875 175.125 327.367188 182.136719 320.722656 C 189.246094 314 196.109375 306.328125 202.542969 297.921875 C 206.484375 292.78125 210.308594 287.3125 213.914062 281.660156 C 226.484375 261.964844 236.71875 240.453125 246.613281 219.648438 C 252.109375 208.09375 257.792969 196.148438 263.820312 184.617188 C 264.109375 184.050781 264.40625 183.484375 264.714844 182.914062 C 266.089844 180.304688 267.257812 178.125 268.390625 176.070312 C 273.515625 166.734375 278.863281 158.003906 284.277344 150.121094 C 299.257812 128.3125 315.890625 111.429688 333.714844 99.949219 C 334.410156 99.503906 335.339844 99.703125 335.789062 100.398438 C 336.238281 101.097656 336.035156 102.023438 335.339844 102.472656 C 317.851562 113.738281 301.507812 130.339844 286.75 151.820312 C 281.390625 159.621094 276.097656 168.265625 271.019531 177.515625 C 269.894531 179.558594 268.734375 181.71875 267.359375 184.324219 C 267.054688 184.886719 266.773438 185.4375 266.488281 185.992188 C 260.476562 197.488281 254.804688 209.40625 249.324219 220.933594 C 239.386719 241.824219 229.113281 263.421875 216.441406 283.273438 C 212.792969 288.996094 208.917969 294.539062 204.925781 299.746094 C 198.394531 308.28125 191.421875 316.070312 184.199219 322.902344 C 177.054688 329.675781 169.574219 335.59375 161.976562 340.488281 C 161.726562 340.652344 161.445312 340.726562 161.164062 340.726562" style="fill: rgb(93, 74, 25);"></path></g><g id="__id386_sa0a5ddipq"><path d="M 183.167969 323.3125 C 182.515625 323.3125 181.917969 322.882812 181.726562 322.226562 C 181.5 321.429688 181.960938 320.597656 182.757812 320.367188 C 204.292969 314.183594 224.628906 303.847656 243.195312 289.648438 C 243.363281 289.53125 243.460938 289.453125 243.5625 289.375 L 243.84375 289.160156 C 259.136719 277.378906 272.636719 263.375 283.9375 247.566406 C 297.375 228.824219 307.140625 208.40625 312.960938 186.886719 C 313.175781 186.085938 314.003906 185.613281 314.800781 185.832031 C 315.601562 186.046875 316.074219 186.871094 315.855469 187.671875 C 309.941406 209.539062 300.023438 230.277344 286.378906 249.3125 C 274.90625 265.359375 261.199219 279.574219 245.644531 291.558594 L 245.398438 291.746094 C 245.25 291.863281 245.101562 291.976562 244.953125 292.078125 C 226.152344 306.457031 205.484375 316.960938 183.585938 323.253906 C 183.445312 323.292969 183.304688 323.3125 183.167969 323.3125" style="fill: rgb(93, 74, 25);"></path></g><g id="__id387_sa0a5ddipq"><path d="M 203.734375 300.335938 C 203.667969 300.335938 203.601562 300.328125 203.53125 300.320312 C 202.714844 300.210938 202.136719 299.453125 202.246094 298.632812 C 204.273438 283.617188 204.359375 268.210938 202.503906 252.835938 C 202.390625 251.972656 202.28125 251.097656 202.160156 250.234375 C 199.703125 232.007812 194.601562 214.289062 186.996094 197.566406 C 180.433594 183.132812 172.132812 169.753906 162.316406 157.808594 C 161.789062 157.167969 161.882812 156.222656 162.523438 155.695312 C 163.164062 155.171875 164.109375 155.261719 164.632812 155.902344 C 174.613281 168.054688 183.054688 181.652344 189.726562 196.324219 C 197.453125 213.316406 202.636719 231.316406 205.132812 249.824219 C 205.253906 250.691406 205.367188 251.578125 205.480469 252.46875 C 207.371094 268.105469 207.28125 283.769531 205.21875 299.035156 C 205.117188 299.785156 204.476562 300.335938 203.734375 300.335938" style="fill: rgb(93, 74, 25);"></path></g><g clip-path="url(#__id372_sa0a5ddipq)" id="__id388_sa0a5ddipq"><path d="M 266.035156 185.128906 C 265.589844 185.128906 265.152344 184.933594 264.855469 184.558594 C 258.820312 176.910156 256.257812 165.859375 258.160156 155.71875 C 260.359375 143.9375 267.929688 132.597656 279.480469 123.785156 C 283.988281 120.347656 289.078125 117.242188 295.03125 114.300781 C 301.359375 111.144531 308.050781 108.488281 313.761719 106.308594 C 315.316406 105.714844 316.878906 105.125 318.4375 104.539062 C 324.019531 102.433594 329.796875 100.253906 335.339844 97.859375 C 336.097656 97.53125 336.980469 97.878906 337.3125 98.640625 C 337.640625 99.398438 337.289062 100.285156 336.527344 100.613281 C 330.921875 103.035156 325.113281 105.226562 319.496094 107.347656 C 317.9375 107.933594 316.382812 108.519531 314.832031 109.109375 C 309.191406 111.265625 302.585938 113.886719 296.367188 116.988281 C 290.582031 119.847656 285.652344 122.847656 281.300781 126.171875 C 270.34375 134.53125 263.171875 145.21875 261.109375 156.269531 C 259.359375 165.589844 261.695312 175.714844 267.210938 182.699219 C 267.722656 183.347656 267.613281 184.292969 266.964844 184.804688 C 266.6875 185.023438 266.359375 185.128906 266.035156 185.128906" style="fill: rgb(93, 74, 25);"></path></g><g clip-path="url(#__id373_sa0a5ddipq)" id="__id389_sa0a5ddipq"><path d="M 265.148438 186.8125 C 264.34375 186.8125 263.675781 186.171875 263.652344 185.359375 C 263.628906 184.53125 264.277344 183.839844 265.105469 183.8125 C 265.820312 183.792969 266.546875 183.75 267.257812 183.695312 C 281.035156 182.578125 293.941406 176.011719 302.65625 165.679688 C 310.949219 155.851562 315.28125 143.210938 319.472656 130.988281 C 320.882812 126.867188 322.34375 122.605469 323.941406 118.496094 C 326.589844 111.671875 329.734375 105.570312 333.289062 100.367188 C 333.757812 99.679688 334.238281 99.003906 334.730469 98.339844 C 335.222656 97.675781 336.164062 97.535156 336.828125 98.03125 C 337.492188 98.523438 337.632812 99.464844 337.136719 100.128906 C 336.671875 100.761719 336.214844 101.402344 335.765625 102.058594 C 332.339844 107.074219 329.300781 112.972656 326.738281 119.582031 C 325.164062 123.636719 323.714844 127.867188 322.308594 131.960938 C 318.03125 144.445312 313.605469 157.355469 304.949219 167.613281 C 295.722656 178.554688 282.070312 185.507812 267.492188 186.6875 C 266.726562 186.742188 265.953125 186.789062 265.195312 186.8125 C 265.179688 186.8125 265.164062 186.8125 265.148438 186.8125" style="fill: rgb(93, 74, 25);"></path></g><g id="__id390_sa0a5ddipq"><path d="M 254.015625 293.714844 C 250.609375 293.714844 247.269531 293.277344 244.105469 292.398438 C 243.976562 292.367188 243.808594 292.324219 243.640625 292.265625 C 242.851562 292.011719 242.421875 291.164062 242.679688 290.375 C 242.9375 289.589844 243.785156 289.15625 244.570312 289.414062 C 244.671875 289.449219 244.769531 289.472656 244.867188 289.496094 C 252.207031 291.539062 260.535156 291 268.363281 287.988281 C 276.972656 284.664062 285.292969 278.367188 293.09375 269.277344 C 312.78125 246.328125 321.488281 214.289062 316.390625 183.570312 C 316.253906 182.753906 316.808594 181.980469 317.625 181.847656 C 318.445312 181.714844 319.214844 182.261719 319.347656 183.082031 C 324.59375 214.660156 315.632812 247.613281 295.371094 271.230469 C 287.242188 280.699219 278.519531 287.28125 269.441406 290.789062 C 264.386719 292.730469 259.125 293.714844 254.015625 293.714844" style="fill: rgb(93, 74, 25);"></path></g><g clip-path="url(#__id374_sa0a5ddipq)" id="__id391_sa0a5ddipq"><path d="M 107.640625 501.140625 C 106.859375 501.140625 106.199219 500.535156 106.144531 499.746094 C 103.59375 463.984375 120.027344 430.554688 135.921875 398.222656 L 137.386719 395.238281 C 146.136719 377.433594 154.894531 358.28125 159.707031 338.867188 C 164.023438 321.53125 164.738281 306.003906 161.890625 291.394531 C 161.816406 290.992188 161.738281 290.613281 161.65625 290.226562 L 161.605469 289.988281 C 158.585938 275.785156 152.144531 262.464844 145.246094 248.929688 L 143.90625 246.316406 C 140.433594 239.539062 136.839844 232.53125 133.714844 225.476562 C 133.25 224.425781 132.785156 223.367188 132.347656 222.308594 C 132.09375 221.722656 131.839844 221.101562 131.597656 220.480469 C 128.164062 212.136719 125.257812 203.300781 122.96875 194.242188 C 119.6875 181.234375 117.714844 167.789062 117.105469 154.277344 C 116.496094 141.0625 117.207031 127.78125 119.210938 114.804688 C 119.335938 113.984375 120.101562 113.425781 120.921875 113.550781 C 121.738281 113.675781 122.300781 114.441406 122.175781 115.261719 C 120.199219 128.042969 119.503906 141.125 120.101562 154.140625 C 120.703125 167.453125 122.644531 180.699219 125.875 193.511719 C 128.132812 202.429688 130.992188 211.128906 134.382812 219.363281 C 134.621094 219.976562 134.859375 220.558594 135.109375 221.136719 C 135.550781 222.195312 136.003906 223.238281 136.457031 224.265625 C 139.550781 231.238281 143.121094 238.207031 146.578125 244.945312 L 147.917969 247.566406 C 154.910156 261.285156 161.441406 274.804688 164.539062 289.367188 L 164.589844 289.613281 C 164.675781 290.019531 164.761719 290.421875 164.839844 290.835938 C 167.769531 305.867188 167.042969 321.820312 162.621094 339.589844 C 157.738281 359.277344 148.902344 378.605469 140.082031 396.558594 L 138.613281 399.546875 C 122.894531 431.519531 106.644531 464.578125 109.136719 499.535156 C 109.195312 500.359375 108.574219 501.078125 107.746094 501.136719 C 107.710938 501.140625 107.675781 501.140625 107.640625 501.140625" style="fill: rgb(93, 74, 25);"></path></g><g id="__id392_sa0a5ddipq"><path d="M 10.0625 318.007812 C 9.628906 318.007812 9.195312 317.820312 8.898438 317.453125 C 8.375 316.8125 8.472656 315.867188 9.117188 315.34375 C 11.359375 313.523438 13.496094 311.4375 15.46875 309.152344 C 20.089844 303.792969 23.902344 297.601562 27.589844 291.617188 C 30.328125 287.167969 33.160156 282.566406 36.332031 278.28125 C 39.949219 273.390625 44.125 268.792969 48.746094 264.617188 C 60.984375 253.539062 75.859375 245.820312 91.753906 242.304688 C 93.113281 242 94.507812 241.726562 96.019531 241.476562 C 96.75 241.339844 97.554688 241.214844 98.59375 241.078125 C 114.929688 238.726562 131.722656 240.722656 147.136719 246.855469 C 147.90625 247.160156 148.28125 248.03125 147.976562 248.800781 C 147.671875 249.570312 146.796875 249.949219 146.027344 249.640625 C 131.101562 243.703125 114.839844 241.769531 99 244.050781 C 98 244.183594 97.246094 244.300781 96.539062 244.429688 C 95.058594 244.679688 93.71875 244.9375 92.40625 245.234375 C 77.015625 248.640625 62.613281 256.113281 50.761719 266.84375 C 46.285156 270.886719 42.242188 275.335938 38.746094 280.066406 C 35.648438 284.246094 32.847656 288.792969 30.140625 293.191406 C 26.394531 299.277344 22.519531 305.570312 17.742188 311.113281 C 15.65625 313.53125 13.390625 315.738281 11.007812 317.671875 C 10.730469 317.898438 10.394531 318.007812 10.0625 318.007812" style="fill: rgb(93, 74, 25);"></path></g><g id="__id393_sa0a5ddipq"><path d="M 1.5 320.097656 C 1.171875 320.097656 0.839844 319.988281 0.5625 319.765625 C -0.0859375 319.25 -0.1875 318.304688 0.328125 317.660156 C 2.226562 315.289062 3.757812 312.546875 5.011719 309.273438 C 7.667969 302.328125 9.09375 294.824219 10.46875 287.570312 C 11.503906 282.105469 12.578125 276.453125 14.171875 271.023438 C 14.324219 270.527344 14.457031 270.078125 14.601562 269.644531 C 18.945312 256.015625 27.117188 246.222656 38.878906 240.554688 C 54.398438 233.074219 75.507812 233.441406 96.796875 241.554688 C 97.097656 241.664062 97.402344 241.789062 97.710938 241.910156 L 97.980469 242.019531 C 98.75 242.328125 99.125 243.199219 98.820312 243.972656 C 98.511719 244.738281 97.640625 245.113281 96.867188 244.808594 L 96.589844 244.695312 C 96.308594 244.582031 96.027344 244.46875 95.742188 244.363281 C 75.207031 236.535156 54.960938 236.136719 40.179688 243.257812 C 29.191406 248.554688 21.542969 257.742188 17.453125 270.574219 C 17.3125 271 17.1875 271.417969 17.0625 271.835938 C 15.496094 277.160156 14.441406 282.738281 13.414062 288.128906 C 12.015625 295.515625 10.566406 303.152344 7.8125 310.34375 C 6.445312 313.914062 4.761719 316.921875 2.671875 319.535156 C 2.375 319.902344 1.9375 320.097656 1.5 320.097656" style="fill: rgb(93, 74, 25);"></path></g><g id="__id394_sa0a5ddipq"><path d="M 1.5 320.097656 C 0.78125 320.097656 0.148438 319.582031 0.0234375 318.851562 C -0.121094 318.035156 0.429688 317.257812 1.246094 317.117188 C 2.785156 316.851562 4.359375 316.523438 5.925781 316.144531 C 7.148438 315.851562 8.378906 315.496094 9.582031 315.089844 C 17.921875 312.316406 24.589844 307.390625 31.652344 302.171875 C 33.128906 301.082031 34.621094 299.976562 36.148438 298.878906 C 46.878906 291.160156 56.261719 283.324219 64.835938 274.929688 C 68.492188 271.347656 71.460938 267.523438 74.601562 263.472656 C 76.15625 261.46875 77.765625 259.394531 79.460938 257.359375 C 84.652344 251.125 90.105469 246.292969 96.621094 242.148438 C 97.046875 241.871094 97.5 241.59375 97.953125 241.320312 C 98.660156 240.886719 99.609375 241.09375 100.039062 241.800781 C 100.472656 242.507812 100.277344 243.414062 99.570312 243.847656 C 99.085938 244.140625 98.660156 244.398438 98.242188 244.671875 C 91.984375 248.652344 86.753906 253.289062 81.765625 259.277344 C 80.101562 261.273438 78.511719 263.324219 76.972656 265.3125 C 73.90625 269.261719 70.738281 273.347656 66.933594 277.074219 C 58.25 285.574219 48.753906 293.503906 37.902344 301.3125 C 36.382812 302.40625 34.898438 303.5 33.433594 304.585938 C 26.175781 309.949219 19.320312 315.011719 10.535156 317.933594 C 9.253906 318.367188 7.9375 318.746094 6.628906 319.0625 C 5.003906 319.453125 3.363281 319.796875 1.753906 320.074219 C 1.667969 320.089844 1.582031 320.097656 1.5 320.097656" style="fill: rgb(93, 74, 25);"></path></g><g id="__id395_sa0a5ddipq"><path d="M 25.96875 272.078125 C 24.796875 272.078125 23.597656 272.042969 22.367188 271.960938 C 21.265625 271.886719 20.101562 271.828125 18.898438 271.773438 C 17.933594 271.726562 16.941406 271.675781 15.9375 271.617188 C 15.109375 271.566406 14.476562 270.859375 14.527344 270.03125 C 14.578125 269.203125 15.277344 268.574219 16.113281 268.621094 C 17.109375 268.679688 18.089844 268.730469 19.046875 268.777344 C 20.269531 268.835938 21.449219 268.894531 22.566406 268.96875 C 32.671875 269.632812 40.636719 267.25 49.269531 264.3125 C 50.054688 264.042969 50.90625 264.464844 51.171875 265.246094 C 51.441406 266.03125 51.019531 266.886719 50.234375 267.152344 C 42.328125 269.84375 34.941406 272.078125 25.96875 272.078125" style="fill: rgb(93, 74, 25);"></path></g><g id="__id396_sa0a5ddipq"><path d="M 285.515625 152.472656 C 285.492188 152.472656 285.46875 152.472656 285.445312 152.46875 C 284.617188 152.433594 283.976562 151.730469 284.015625 150.902344 C 284.691406 136.140625 288.105469 124.335938 294.449219 114.816406 C 294.910156 114.125 295.839844 113.9375 296.527344 114.398438 C 297.21875 114.859375 297.40625 115.789062 296.945312 116.476562 C 290.914062 125.53125 287.664062 136.835938 287.011719 151.039062 C 286.976562 151.84375 286.3125 152.472656 285.515625 152.472656" style="fill: rgb(93, 74, 25);"></path></g><g id="__id397_sa0a5ddipq"><path d="M 203.4375 254.167969 C 203.089844 254.167969 202.730469 254.15625 202.355469 254.132812 C 193.984375 253.71875 185.582031 248.683594 178.082031 239.578125 C 166.605469 225.648438 159.894531 205.695312 159.410156 193.996094 C 159.277344 190.777344 159.195312 187.546875 159.117188 184.421875 C 158.863281 174.136719 158.621094 164.421875 156.648438 154.929688 C 156.480469 154.117188 157 153.324219 157.8125 153.152344 C 158.617188 152.984375 159.414062 153.507812 159.585938 154.316406 C 161.613281 164.074219 161.859375 173.921875 162.117188 184.347656 C 162.195312 187.460938 162.273438 190.679688 162.40625 193.871094 C 162.871094 205.085938 169.339844 224.246094 180.398438 237.671875 C 187.347656 246.105469 194.996094 250.765625 202.523438 251.136719 C 203.046875 251.171875 203.496094 251.179688 203.925781 251.160156 C 204.78125 251.109375 205.453125 251.765625 205.488281 252.59375 C 205.527344 253.417969 204.882812 254.117188 204.054688 254.15625 C 203.851562 254.164062 203.648438 254.167969 203.4375 254.167969" style="fill: rgb(93, 74, 25);"></path></g><g id="__id398_sa0a5ddipq"><path d="M 203.644531 251.523438 C 203.449219 251.523438 203.253906 251.484375 203.0625 251.40625 C 202.300781 251.082031 201.941406 250.203125 202.261719 249.4375 C 211.34375 227.957031 205.074219 199.269531 194.5625 183.1875 C 193.214844 181.117188 191.640625 179.109375 189.757812 177.050781 C 185.203125 172.121094 179.332031 167.515625 171.285156 162.566406 C 168.835938 161.0625 166.082031 159.644531 162.871094 158.226562 C 161.351562 157.558594 159.714844 156.878906 157.558594 156.015625 C 156.789062 155.707031 156.414062 154.835938 156.722656 154.066406 C 157.03125 153.296875 157.90625 152.921875 158.675781 153.230469 C 160.859375 154.105469 162.527344 154.800781 164.078125 155.480469 C 167.417969 156.953125 170.289062 158.433594 172.855469 160.007812 C 181.144531 165.109375 187.214844 169.878906 191.964844 175.019531 C 193.964844 177.203125 195.636719 179.339844 197.074219 181.546875 C 208.007812 198.277344 214.511719 228.167969 205.027344 250.605469 C 204.785156 251.179688 204.230469 251.523438 203.644531 251.523438" style="fill: rgb(93, 74, 25);"></path></g><g id="__id399_sa0a5ddipq"><path d="M 285.160156 249.9375 C 285.0625 249.9375 284.964844 249.929688 284.867188 249.910156 C 284.054688 249.746094 283.523438 248.960938 283.6875 248.144531 C 285.671875 238.132812 285.527344 227.199219 283.246094 214.722656 C 283.097656 213.90625 283.636719 213.125 284.453125 212.976562 C 285.257812 212.832031 286.050781 213.367188 286.199219 214.183594 C 288.546875 227.039062 288.6875 238.339844 286.628906 248.730469 C 286.488281 249.445312 285.859375 249.9375 285.160156 249.9375" style="fill: rgb(93, 74, 25);"></path></g></g></svg>
